<svg width="26" height="26" viewBox="0 0 26 26" fill="none" xmlns="http://www.w3.org/2000/svg">
<path fill-rule="evenodd" clip-rule="evenodd" d="M1 13C1 6.37258 6.37258 1 13 1C19.6274 1 25 6.37258 25 13C25 19.6274 19.6274 25 13 25C6.37258 25 1 19.6274 1 13Z" stroke="white"/>
<path fill-rule="evenodd" clip-rule="evenodd" d="M20.2001 14.8841V14.1C20.2001 14.0265 20.156 13.9775 20.0238 14.051L16.6734 15.1292C16.6513 15.1292 16.6513 15.1292 16.6293 15.1537C16.3462 15.4869 16.1009 15.7362 15.9693 15.8699C15.9267 15.9132 15.896 15.9443 15.8798 15.9623C15.6815 16.1584 15.417 16.2564 15.1525 16.2564H13.9401V14.8841H14.91C14.932 14.8841 14.9541 14.8841 14.9761 14.8596L15.1084 14.7371C15.1745 14.6881 15.2406 14.6146 15.3067 14.5411L15.3067 14.5411C15.3519 14.5076 15.3868 14.4626 15.4185 14.4219C15.4331 14.403 15.4471 14.385 15.461 14.3695C15.5062 14.336 15.5411 14.2911 15.5728 14.2504C15.5874 14.2315 15.6014 14.2135 15.6153 14.198C15.6484 14.149 15.687 14.1 15.7255 14.051C15.7641 14.002 15.8027 13.953 15.8358 13.9039C15.9019 13.8304 15.946 13.7569 15.99 13.6834L15.9901 13.6834C16.0121 13.6466 16.0396 13.6099 16.0672 13.5731C16.0948 13.5364 16.1223 13.4996 16.1443 13.4629C16.1598 13.4113 16.1861 13.3718 16.2157 13.3274C16.2282 13.3085 16.2414 13.2888 16.2546 13.2668C16.2986 13.1933 16.3427 13.1198 16.3648 13.0708L16.3648 13.0707C16.453 12.8992 16.5411 12.7277 16.6072 12.5562C16.6409 12.4813 16.6617 12.4064 16.6795 12.3425C16.685 12.3227 16.6902 12.304 16.6954 12.2866C16.7064 12.2376 16.7174 12.1948 16.7285 12.1519C16.7395 12.109 16.7505 12.0661 16.7615 12.0171C16.7626 12.006 16.7637 11.995 16.7649 11.984C16.7857 11.7768 16.8045 11.5894 16.7836 11.38C16.7836 11.3065 16.7836 11.233 16.7615 11.1839C16.7615 11.1594 16.7615 11.1104 16.7395 11.0614C16.7174 10.8409 16.6513 10.6448 16.5632 10.4488C16.5521 10.4121 16.5356 10.3753 16.5191 10.3385C16.5025 10.3018 16.486 10.265 16.475 10.2283C16.4309 10.1548 16.3923 10.0812 16.3538 10.0077C16.3152 9.93421 16.2766 9.8607 16.2325 9.78719C16.2187 9.74104 16.1962 9.70455 16.1759 9.67166C16.1638 9.65215 16.1526 9.6339 16.1443 9.61566C16.1113 9.56665 16.0727 9.51152 16.0341 9.45638C15.9956 9.40124 15.957 9.34611 15.9239 9.2971C15.8909 9.26034 15.8633 9.21746 15.8358 9.17457C15.8082 9.13169 15.7807 9.08881 15.7476 9.05205C15.7145 9.01529 15.687 8.97854 15.6594 8.94178C15.6319 8.90503 15.6043 8.86827 15.5713 8.83151C15.3508 8.56196 15.1304 8.31691 14.932 8.12088C14.9178 8.08923 14.8944 8.0678 14.8677 8.04339C14.8531 8.03 14.8374 8.01572 14.8218 7.99836C14.6675 7.85133 14.5132 7.7043 14.403 7.60629C14.3369 7.55728 14.2928 7.50828 14.2487 7.45927L14.2487 7.45926C14.1826 7.41025 14.1385 7.36124 14.1165 7.33673C14.1165 7.31223 14.0944 7.31223 14.0944 7.31223L13.9622 7.26322V6.087C13.9622 5.89097 13.896 5.71943 13.7858 5.59691C13.6756 5.47439 13.5213 5.40088 13.345 5.40088C13.0144 5.40088 12.7278 5.71944 12.7278 6.11151V6.92016L12.6617 6.89565L12.4854 6.84664L12.3311 6.79764L11.1187 6.43007C11.0747 6.40556 11.0306 6.47908 11.0526 6.52808L11.251 6.92016L11.3171 7.06718C11.3281 7.10394 11.3447 7.1407 11.3612 7.17745C11.3777 7.21421 11.3943 7.25097 11.4053 7.28773C11.4163 7.32448 11.4328 7.35511 11.4494 7.38574C11.4659 7.41638 11.4824 7.44701 11.4935 7.48376C11.5596 7.63079 11.6257 7.80232 11.6918 7.97385L11.8241 8.34142C11.9343 8.63548 12.0445 8.97854 12.1327 9.3216C12.1696 9.40371 12.1911 9.50302 12.21 9.59071C12.2137 9.6077 12.2173 9.62425 12.2208 9.64016L12.2429 9.68917C12.287 9.8607 12.309 10.0077 12.3311 10.1793C12.3531 10.2773 12.3751 10.3998 12.3751 10.4978C12.3751 10.5591 12.3807 10.6203 12.3862 10.6816C12.3917 10.7429 12.3972 10.8041 12.3972 10.8654C12.4192 10.9879 12.4192 11.1104 12.4192 11.2084C12.4192 11.5025 12.3972 11.7721 12.3531 12.0171L12.287 12.2376C12.2788 12.265 12.2675 12.2958 12.2555 12.3287C12.2352 12.3841 12.2126 12.4457 12.1988 12.5072C12.1768 12.5807 12.1547 12.6297 12.1327 12.6787L12.1327 12.6787C12.0225 12.9728 11.8902 13.2913 11.7359 13.5609C11.5155 13.9775 11.3171 14.3205 11.1628 14.5656C11.1408 14.6146 11.1187 14.6391 11.0967 14.6636C11.0526 14.7371 11.0967 14.8351 11.1849 14.8351H12.7499V16.2074H11.1628C10.744 16.2074 10.3473 15.9623 10.1489 15.5212C10.0607 15.3007 10.0166 15.0557 10.0387 14.8351C10.0387 14.7861 9.99459 14.7126 9.92846 14.7126H6.68827C6.64418 14.7126 6.6001 14.7616 6.6001 14.8106V14.8841C6.6001 17.163 8.25326 19.0009 10.2811 19.0009H16.0341C17.097 19.0009 17.7066 17.9188 18.3087 16.8498C18.4808 16.5444 18.6522 16.2401 18.8335 15.9623C19.1421 15.4722 19.9136 15.0802 20.134 14.9821C20.1781 14.9576 20.2001 14.9331 20.2001 14.8841ZM7.48253 13.0952L7.43845 13.1687C7.39436 13.2422 7.43845 13.3402 7.50457 13.3647H10.4582C10.5023 13.3647 10.5243 13.3402 10.5464 13.3157L10.5464 13.3157C10.5905 13.2667 10.6345 13.1932 10.6566 13.1197C10.9211 12.6541 11.1415 12.1395 11.2297 11.7474C11.406 10.8162 11.0093 9.34597 10.5243 8.14525C10.4802 8.04723 10.3921 8.04723 10.348 8.12074L7.48253 13.0952Z" fill="white"/>
</svg>
