<svg width="534" height="90" viewBox="0 0 534 90" fill="none" xmlns="http://www.w3.org/2000/svg">
<path d="M0.0918751 90V0.719998H23.7319L28.6519 42.48L33.8119 0.719998H56.1319V90H39.0919V41.28L31.5319 90H24.4519L16.8919 41.28V90H0.0918751ZM60.0919 0.719998H97.1719V19.2H79.6519V34.44H93.6919V53.4H79.6519V71.16H97.8919V90H60.0919V0.719998ZM100.639 0.719998H137.719V19.2H120.199V34.44H134.239V53.4H120.199V71.16H138.439V90H100.639V0.719998ZM139.871 0.719998H181.871V19.2H170.711V90H151.031V19.2H139.871V0.719998ZM196.707 0.719998H238.707V19.2H227.547V90H207.867V19.2H196.707V0.719998ZM261.298 54V90H241.498V0.719998H261.298V33.12H268.138V0.719998H287.938V90H268.138V54H261.298ZM291.889 0.719998H328.969V19.2H311.449V34.44H325.489V53.4H311.449V71.16H329.689V90H291.889V0.719998ZM344.481 0.719998H386.481V19.2H375.321V90H355.641V19.2H344.481V0.719998ZM389.272 0.719998H426.352V19.2H408.832V34.44H422.872V53.4H408.832V71.16H427.072V90H389.272V0.719998ZM457.279 90L455.839 76.92H446.719L445.399 90H428.239L439.639 0.719998H463.999L476.479 90H457.279ZM451.279 32.16L448.519 59.28H454.039L451.279 32.16ZM477.748 90V0.719998H501.388L506.308 42.48L511.468 0.719998H533.788V90H516.748V41.28L509.188 90H502.108L494.548 41.28V90H477.748Z" fill="#161C23"/>
</svg>
