<svg width="20" height="20" viewBox="0 0 20 20" fill="none" xmlns="http://www.w3.org/2000/svg">
<mask id="mask0_574_122" style="mask-type:luminance" maskUnits="userSpaceOnUse" x="0" y="0" width="20" height="20">
<path d="M20 10C20 15.5333 15.5333 20 10 20C4.46667 20 0 15.5333 0 10C0 4.46667 4.46667 0 10 0C15.5333 0 20 4.46667 20 10ZM2.51111 10C2.51111 14.1333 5.86667 17.5111 10 17.5111C14.1333 17.5111 17.5111 14.1333 17.5111 10C17.5111 5.86667 14.1556 2.51111 10 2.51111C5.84444 2.51111 2.51111 5.86667 2.51111 10Z" fill="white"/>
</mask>
<g mask="url(#mask0_574_122)">
<mask id="mask1_574_122" style="mask-type:luminance" maskUnits="userSpaceOnUse" x="-1" y="-1" width="22" height="22">
<path d="M10 9.99988C10 9.68877 10 9.37766 10 9.06655C10 8.77766 10 8.48877 10 8.19988C10 7.91099 10 7.64432 10 7.37766C10 7.11099 10 6.84432 10 6.59988C10 6.35544 10 6.08877 10 5.84432C10 5.59988 10 5.35544 10 5.11099C10 4.86655 10 4.6221 10 4.37766C10 4.13321 10 3.88877 10 3.64432C10 3.39988 10 3.15544 10 2.88877C10 2.64433 10 2.37766 10 2.11099C10 1.84433 10 1.57766 10 1.28877C10 0.999881 10 0.710992 10 0.422103C10 0.133214 10 -0.177897 10 -0.51123C9.2889 -0.51123 8.60001 -0.444564 7.95556 -0.31123C7.31112 -0.177897 6.66668 -0.000119388 6.0889 0.244325C5.4889 0.488769 4.93334 0.777658 4.42223 1.11099C3.91112 1.44432 3.42223 1.79988 2.97779 2.2221C2.53334 2.6221 2.13334 3.06655 1.77779 3.51099C1.42223 3.97766 1.0889 4.46655 0.822229 4.97766C0.555563 5.48877 0.311119 6.0221 0.133341 6.55544C-0.0444374 7.08877 -0.199993 7.66655 -0.288881 8.2221C-0.377769 8.79988 -0.422215 9.37766 -0.422215 9.95544C-0.422215 10.5332 -0.377769 11.111 -0.288881 11.6665C-0.199993 12.2221 -0.066658 12.7554 0.11112 13.2665C0.288897 13.7777 0.488895 14.2665 0.733341 14.7332C0.977785 15.1999 1.24445 15.6443 1.53334 16.0665C1.82223 16.4888 2.15556 16.8665 2.51112 17.2443C2.86667 17.5999 3.24445 17.9554 3.64445 18.2665C4.04445 18.5777 4.46667 18.8443 4.8889 19.111C5.33334 19.3554 5.77779 19.5777 6.24445 19.7554C6.71112 19.9332 7.20001 20.0888 7.71112 20.1999C8.22223 20.311 8.73334 20.3999 9.24445 20.4221C9.77779 20.4665 10.3111 20.4665 10.8222 20.4221C11.3556 20.3777 11.8667 20.311 12.3556 20.1999C12.8445 20.0888 13.3333 19.9332 13.8222 19.7554C14.2889 19.5777 14.7556 19.3554 15.1778 19.111C15.6222 18.8665 16.0445 18.5777 16.4222 18.2665C16.8222 17.9554 17.2 17.6221 17.5556 17.2443C17.9111 16.8888 18.2445 16.4888 18.5333 16.0665C18.8222 15.6443 19.1111 15.1999 19.3333 14.7332C19.5778 14.2665 19.7778 13.7777 19.9556 13.2665C20.1333 12.7554 20.2667 12.2221 20.3556 11.6665C20.4222 11.1332 20.4667 10.5777 20.4667 9.97766C20.4667 9.39988 20.4222 8.8221 20.3333 8.24432C20.2445 7.66655 20.0889 7.11099 19.9111 6.57766C19.7333 6.04432 19.4889 5.51099 19.2222 4.99988C18.9556 4.48877 18.6222 3.99988 18.2667 3.53321C17.9111 3.06655 17.5111 2.64432 17.0667 2.24432C16.6222 1.84432 16.1333 1.46655 15.6222 1.13321C15.1111 0.799881 14.5556 0.510992 13.9556 0.266547C13.3556 0.0221028 12.7333 -0.155675 12.0889 -0.289008C11.4445 -0.422342 10.7556 -0.489008 10.0445 -0.489008C10.0445 -0.177897 10.0445 0.133214 10.0445 0.444325C10.0445 0.733214 10.0445 1.0221 10.0445 1.31099C10.0445 1.59988 10.0445 1.86655 10.0445 2.13321C10.0445 2.39988 10.0445 2.66655 10.0445 2.91099C10.0445 3.15544 10.0445 3.4221 10.0445 3.66655C10.0445 3.91099 10.0445 4.15544 10.0445 4.39988C10.0445 4.64432 10.0445 4.88877 10.0445 5.13321C10.0445 5.37766 10.0445 5.6221 10.0445 5.86655C10.0445 6.11099 10.0445 6.35544 10.0445 6.6221C10.0445 6.86655 10.0445 7.13321 10.0445 7.39988C10.0445 7.66655 10.0445 7.93321 10.0445 8.2221C10.0445 8.51099 10.0445 8.79988 10.0445 9.08877C10 9.35544 10 9.66655 10 9.99988Z" fill="white"/>
</mask>
<g mask="url(#mask1_574_122)">
<rect width="20.96" height="21.0133" transform="matrix(-1 0 0 1 20.4933 -0.51123)" fill="url(#paint0_angular_574_122)"/>
</g>
</g>
<defs>
<radialGradient id="paint0_angular_574_122" cx="0" cy="0" r="1" gradientUnits="userSpaceOnUse" gradientTransform="translate(10.48 10.5067) rotate(-90) scale(7.46223 7.44329)">
<stop stop-color="white"/>
<stop offset="1" stop-color="white" stop-opacity="0"/>
</radialGradient>
</defs>
</svg>
