<svg width="20" height="20" viewBox="0 0 20 20" fill="none" xmlns="http://www.w3.org/2000/svg">
<path fill-rule="evenodd" clip-rule="evenodd" d="M10 0C4.47715 0 0 4.47715 0 10C0 15.5228 4.47715 20 10 20C15.5228 20 20 15.5228 20 10C20 4.47715 15.5228 0 10 0ZM16 10.9162V11.5697C16 11.6105 15.9817 11.631 15.9449 11.6514C15.7612 11.7331 15.1183 12.0598 14.8612 12.4682C14.7101 12.6996 14.5673 12.9533 14.4239 13.2078C13.9221 14.0986 13.4141 15.0003 12.5284 15.0003H7.73422C6.04432 15.0003 4.66669 13.4688 4.66669 11.5697V11.5084C4.66669 11.4676 4.70342 11.4268 4.74016 11.4268H7.44032C7.49543 11.4268 7.53217 11.488 7.53217 11.5289C7.5138 11.7126 7.55054 11.9168 7.62401 12.1006C7.78933 12.4682 8.11996 12.6724 8.46896 12.6724H9.79149V11.5289H8.48733C8.41385 11.5289 8.37712 11.4472 8.41385 11.3859C8.43222 11.3655 8.45059 11.3451 8.46896 11.3042C8.59754 11.1 8.76285 10.8141 8.94654 10.467C9.07512 10.2424 9.18533 9.97691 9.27717 9.73186L9.27718 9.73184C9.29554 9.69101 9.31391 9.65017 9.33228 9.58892C9.34381 9.53764 9.36257 9.48637 9.37949 9.44015C9.38953 9.41273 9.39891 9.3871 9.40575 9.36429L9.46086 9.18051C9.49759 8.97631 9.51596 8.75168 9.51596 8.50663C9.51596 8.42495 9.51596 8.32285 9.49759 8.22075C9.49759 8.1697 9.493 8.11864 9.48841 8.06759C9.48382 8.01654 9.47923 7.96549 9.47923 7.91444C9.47923 7.83276 9.46085 7.73066 9.44249 7.64898C9.42412 7.50603 9.40575 7.38351 9.36901 7.24057L9.35064 7.19973L9.34162 7.15852C9.32583 7.08544 9.30795 7.00269 9.27717 6.93426C9.2037 6.64838 9.11185 6.36249 9.02001 6.11744L8.9098 5.81114C8.8547 5.66819 8.79959 5.52525 8.74448 5.40273C8.7353 5.3721 8.72153 5.34658 8.70775 5.32106L8.70775 5.32105C8.69397 5.29552 8.68019 5.27 8.67101 5.23937C8.66183 5.20874 8.64805 5.17811 8.63428 5.14749L8.63427 5.14747L8.63426 5.14745C8.62049 5.11683 8.60672 5.0862 8.59754 5.05558L8.54243 4.93306L8.37712 4.60633C8.35875 4.56549 8.39548 4.50423 8.43222 4.52465L9.44249 4.83096L9.57107 4.8718L9.71801 4.91264L9.77312 4.93306V4.25918C9.77312 3.93246 10.0119 3.66699 10.2874 3.66699C10.4344 3.66699 10.563 3.72825 10.6548 3.83035C10.7466 3.93246 10.8018 4.0754 10.8018 4.23876V5.21894L10.912 5.25978C10.912 5.25978 10.9303 5.25978 10.9303 5.28021C10.9487 5.30063 10.9854 5.34147 11.0405 5.38231L11.0406 5.38232C11.0773 5.42316 11.114 5.46399 11.1691 5.50483C11.261 5.58651 11.3895 5.70903 11.5181 5.83156C11.5311 5.84602 11.5442 5.85793 11.5563 5.86909C11.5786 5.88943 11.5981 5.90729 11.61 5.93366C11.7753 6.09702 11.959 6.30123 12.1427 6.52585C12.1702 6.55648 12.1932 6.58711 12.2161 6.61774L12.2161 6.61775L12.2161 6.61775C12.2391 6.64838 12.262 6.67901 12.2896 6.70964C12.3172 6.74027 12.3401 6.776 12.3631 6.81174C12.386 6.84747 12.409 6.88321 12.4365 6.91384C12.4641 6.95467 12.4962 7.00059 12.5284 7.04653L12.5284 7.04657C12.5605 7.09252 12.5927 7.13846 12.6202 7.17931C12.6271 7.19451 12.6364 7.2097 12.6465 7.22596L12.6465 7.22597C12.6634 7.25339 12.6822 7.28379 12.6937 7.32225C12.7304 7.38351 12.7626 7.44477 12.7947 7.50603C12.8269 7.5673 12.859 7.62856 12.8958 7.68982C12.9049 7.72045 12.9187 7.75108 12.9325 7.78171C12.9463 7.81234 12.96 7.84297 12.9692 7.8736C13.0427 8.03696 13.0978 8.20033 13.1162 8.38411C13.1345 8.42495 13.1345 8.46579 13.1345 8.48621C13.1529 8.52705 13.1529 8.58832 13.1529 8.64958C13.1704 8.82412 13.1547 8.98025 13.1373 9.15294L13.1345 9.18051C13.1254 9.22132 13.1162 9.25703 13.107 9.29274L13.107 9.29282L13.107 9.29288C13.0978 9.32859 13.0886 9.36431 13.0794 9.40513C13.0751 9.41957 13.0708 9.43515 13.0662 9.4516L13.0662 9.45167C13.0514 9.50496 13.034 9.56736 13.006 9.62976C12.9509 9.77269 12.8774 9.91561 12.8039 10.0585L12.8039 10.0586C12.7856 10.0994 12.7488 10.1607 12.7121 10.2219L12.7121 10.2219L12.7121 10.222C12.7011 10.2402 12.6901 10.2567 12.6797 10.2724L12.6797 10.2724C12.655 10.3094 12.6331 10.3423 12.6202 10.3853C12.6019 10.4159 12.5789 10.4466 12.5559 10.4772C12.533 10.5078 12.51 10.5385 12.4917 10.5691L12.4916 10.5691L12.4916 10.5691C12.4549 10.6304 12.4182 10.6916 12.3631 10.7529C12.3355 10.7937 12.3034 10.8346 12.2712 10.8754L12.2712 10.8754C12.2391 10.9163 12.2069 10.9571 12.1794 10.9979C12.1678 11.0109 12.1561 11.0258 12.1439 11.0416L12.1439 11.0416C12.1175 11.0755 12.0885 11.113 12.0508 11.1409C12.0392 11.1538 12.0275 11.1688 12.0153 11.1845C11.989 11.2185 11.9599 11.2559 11.9222 11.2838L11.9222 11.2838L11.9222 11.2839C11.8671 11.3451 11.812 11.4063 11.7569 11.4472L11.6467 11.5493C11.6283 11.5697 11.61 11.5697 11.5916 11.5697H10.7834V12.7132H11.7936C12.0141 12.7132 12.2345 12.6316 12.3998 12.4682C12.4133 12.4532 12.4388 12.4273 12.4743 12.3912L12.4743 12.3912L12.4743 12.3912C12.584 12.2798 12.7884 12.072 13.0243 11.7943C13.0427 11.7739 13.0427 11.7739 13.0611 11.7739L15.8531 10.8754C15.9633 10.8141 16 10.855 16 10.9162ZM5.36513 10.1403L5.40186 10.0791L7.78975 5.93373C7.82649 5.87247 7.89996 5.87247 7.9367 5.95416C8.3408 6.95476 8.67143 8.17999 8.52449 8.95596C8.45101 9.28269 8.26733 9.71152 8.04691 10.0995C8.02854 10.1608 7.9918 10.222 7.95507 10.2629C7.9367 10.2833 7.91833 10.3037 7.88159 10.3037H5.42023C5.36513 10.2833 5.32839 10.2016 5.36513 10.1403Z" fill="#878F94"/>
</svg>
