<svg width="20" height="20" viewBox="0 0 20 20" fill="none" xmlns="http://www.w3.org/2000/svg">
<path fill-rule="evenodd" clip-rule="evenodd" d="M0 10C0 4.47715 4.47715 0 10 0C15.5228 0 20 4.47715 20 10C20 15.5228 15.5228 20 10 20C4.47715 20 0 15.5228 0 10ZM9.49072 5.33492C9.58985 5.33476 9.6965 5.33481 9.81159 5.33486L10.0013 5.33492C11.5209 5.33492 11.701 5.34037 12.3011 5.36764C12.856 5.39302 13.1572 5.48574 13.3578 5.56364C13.6234 5.6668 13.8128 5.79011 14.0118 5.98931C14.211 6.18851 14.3343 6.37822 14.4377 6.64382C14.5156 6.84421 14.6085 7.14538 14.6337 7.70029C14.661 8.30026 14.6669 8.48049 14.6669 9.99938C14.6669 11.5183 14.661 11.6985 14.6337 12.2985C14.6084 12.8534 14.5156 13.1546 14.4377 13.3549C14.3346 13.6205 14.211 13.8097 14.0118 14.0087C13.8126 14.2079 13.6235 14.3312 13.3578 14.4344C13.1574 14.5127 12.856 14.6051 12.3011 14.6305C11.7011 14.6578 11.5209 14.6637 10.0013 14.6637C8.48156 14.6637 8.30145 14.6578 7.70148 14.6305C7.14656 14.6049 6.84539 14.5122 6.64465 14.4343C6.37905 14.3311 6.18934 14.2078 5.99014 14.0086C5.79094 13.8094 5.66763 13.6202 5.56423 13.3545C5.48633 13.1541 5.39349 12.8529 5.36824 12.298C5.34096 11.698 5.33551 11.5178 5.33551 9.99796C5.33551 8.47811 5.34096 8.29884 5.36824 7.69887C5.39361 7.14396 5.48633 6.84278 5.56423 6.64216C5.66739 6.37656 5.79094 6.18685 5.99014 5.98765C6.18934 5.78845 6.37905 5.66514 6.64465 5.56175C6.84528 5.48349 7.14656 5.391 7.70148 5.36551C8.22651 5.3418 8.42998 5.33468 9.49072 5.3335V5.33492ZM13.0387 6.28232C12.6617 6.28232 12.3558 6.58788 12.3558 6.96506C12.3558 7.34211 12.6617 7.64802 13.0387 7.64802C13.4158 7.64802 13.7217 7.34211 13.7217 6.96506C13.7217 6.588 13.4158 6.28209 13.0387 6.28209V6.28232ZM7.07641 10.0029C7.07641 8.38878 8.38502 7.08014 9.99907 7.08008C11.6132 7.08008 12.9215 8.38875 12.9215 10.0029C12.9215 11.617 11.6133 12.925 9.99919 12.925C8.38508 12.925 7.07641 11.617 7.07641 10.0029ZM11.8976 10.0012C11.8976 8.9534 11.0481 8.10407 10.0005 8.10407C8.95264 8.10407 8.10332 8.9534 8.10332 10.0012C8.10332 11.0489 8.95264 11.8983 10.0005 11.8983C11.0481 11.8983 11.8976 11.0489 11.8976 10.0012Z" fill="#878F94"/>
</svg>
