<svg width="237" height="93" viewBox="0 0 237 93" fill="none" xmlns="http://www.w3.org/2000/svg">
<path d="M0.92 91H-0.0799999V92H0.92V91ZM0.92 1.72V0.719998H-0.0799999V1.72H0.92ZM38.36 41.92L38.0438 40.9713L35.0188 41.9796L38.0778 42.8794L38.36 41.92ZM20.72 51.64V50.64H19.72V51.64H20.72ZM20.72 75.16H19.72V76.16H20.72V75.16ZM20.72 16.96V15.96H19.72V16.96H20.72ZM20.72 36.16H19.72V37.16H20.72V36.16ZM1.92 91V1.72H-0.0799999V91H1.92ZM0.92 2.72H30.92V0.719998H0.92V2.72ZM30.92 2.72C35.8866 2.72 39.5036 3.86075 41.8939 6.27812C44.2875 8.69874 45.64 12.59 45.64 18.52H47.64C47.64 12.33 46.2325 7.82126 43.3161 4.87187C40.3964 1.91924 36.1534 0.719998 30.92 0.719998V2.72ZM45.64 18.52V28.36H47.64V18.52H45.64ZM45.64 28.36C45.64 36.3933 40.5715 40.1287 38.0438 40.9713L38.6762 42.8687C41.9085 41.7913 47.64 37.3667 47.64 28.36H45.64ZM38.0778 42.8794C39.9975 43.444 42.2917 44.531 44.1066 46.6759C45.9101 48.8073 47.32 52.0769 47.32 57.16H49.32C49.32 51.6831 47.7899 47.9327 45.6334 45.3841C43.4883 42.849 40.8025 41.596 38.6422 40.9606L38.0778 42.8794ZM47.32 57.16V70.36H49.32V57.16H47.32ZM47.32 70.36C47.32 77.2147 45.9564 82.1107 43.4418 85.2782C40.9622 88.4017 37.2369 90 32.12 90V92C37.6831 92 42.0578 90.2383 45.0082 86.5218C47.9236 82.8493 49.32 77.4253 49.32 70.36H47.32ZM32.12 90H0.92V92H32.12V90ZM23.96 50.64H20.72V52.64H23.96V50.64ZM19.72 51.64V75.16H21.72V51.64H19.72ZM20.72 76.16H24.32V74.16H20.72V76.16ZM24.32 76.16C25.6234 76.16 26.8728 75.9029 27.7 74.8C28.4537 73.7951 28.68 72.2939 28.68 70.36H26.68C26.68 72.2661 26.4263 73.1649 26.1 73.6C25.8472 73.9371 25.4166 74.16 24.32 74.16V76.16ZM28.68 70.36V56.2H26.68V70.36H28.68ZM28.68 56.2C28.68 54.6058 28.478 53.1737 27.6962 52.1449C26.8581 51.0421 25.5535 50.64 23.96 50.64V52.64C25.2465 52.64 25.8019 52.9579 26.1038 53.3551C26.462 53.8263 26.68 54.6742 26.68 56.2H28.68ZM23.6 15.96H20.72V17.96H23.6V15.96ZM19.72 16.96V36.16H21.72V16.96H19.72ZM20.72 37.16H23.48V35.16H20.72V37.16ZM23.48 37.16C24.7636 37.16 25.9995 36.855 26.8815 35.8654C27.7372 34.9053 28.08 33.4966 28.08 31.72H26.08C26.08 33.3034 25.7628 34.1147 25.3885 34.5346C25.0405 34.925 24.4764 35.16 23.48 35.16V37.16ZM28.08 31.72V21.16H26.08V31.72H28.08ZM28.08 21.16C28.08 19.7477 27.9083 18.4097 27.177 17.4277C26.3885 16.3688 25.1451 15.96 23.6 15.96V17.96C24.8149 17.96 25.3115 18.2712 25.573 18.6223C25.8917 19.0503 26.08 19.8123 26.08 21.16H28.08ZM51.4278 1.72V0.719998H50.4278V1.72H51.4278ZM71.2278 1.72H72.2278V0.719998H71.2278V1.72ZM71.2278 72.04H70.2278V73.04H71.2278V72.04ZM87.4278 72.04H88.4278V71.04H87.4278V72.04ZM87.4278 91V92H88.4278V91H87.4278ZM51.4278 91H50.4278V92H51.4278V91ZM51.4278 2.72H71.2278V0.719998H51.4278V2.72ZM70.2278 1.72V72.04H72.2278V1.72H70.2278ZM71.2278 73.04H87.4278V71.04H71.2278V73.04ZM86.4278 72.04V91H88.4278V72.04H86.4278ZM87.4278 90H51.4278V92H87.4278V90ZM52.4278 91V1.72H50.4278V91H52.4278ZM117.794 91L116.8 91.1094L116.898 92H117.794V91ZM116.354 77.92L117.348 77.8106L117.25 76.92H116.354V77.92ZM107.234 77.92V76.92H106.33L106.239 77.8196L107.234 77.92ZM105.914 91V92H106.819L106.909 91.1004L105.914 91ZM88.7544 91L87.7624 90.8733L87.6186 92H88.7544V91ZM100.154 1.72V0.719998H99.2739L99.1624 1.59334L100.154 1.72ZM124.514 1.72L125.505 1.58156L125.384 0.719998H124.514V1.72ZM136.994 91V92H138.144L137.985 90.8616L136.994 91ZM111.794 33.16L112.789 33.0588H110.8L111.794 33.16ZM109.034 60.28L108.04 60.1788L107.927 61.28H109.034V60.28ZM114.554 60.28V61.28H115.661L115.549 60.1788L114.554 60.28ZM118.788 90.8906L117.348 77.8106L115.36 78.0294L116.8 91.1094L118.788 90.8906ZM116.354 76.92H107.234V78.92H116.354V76.92ZM106.239 77.8196L104.919 90.8996L106.909 91.1004L108.229 78.0204L106.239 77.8196ZM105.914 90H88.7544V92H105.914V90ZM89.7463 91.1267L101.146 1.84666L99.1624 1.59334L87.7624 90.8733L89.7463 91.1267ZM100.154 2.72H124.514V0.719998H100.154V2.72ZM123.524 1.85844L136.004 91.1384L137.985 90.8616L125.505 1.58156L123.524 1.85844ZM136.994 90H117.794V92H136.994V90ZM110.8 33.0588L108.04 60.1788L110.029 60.3812L112.789 33.2612L110.8 33.0588ZM109.034 61.28H114.554V59.28H109.034V61.28ZM115.549 60.1788L112.789 33.0588L110.8 33.2612L113.56 60.3812L115.549 60.1788ZM164.086 52V51H163.086V52H164.086ZM183.646 52H184.646V51H183.646V52ZM183.646 36.04V37.04H184.646V36.04H183.646ZM164.086 36.04H163.086V37.04H164.086V36.04ZM165.086 69.88V52H163.086V69.88H165.086ZM164.086 53H183.646V51H164.086V53ZM182.646 52V70.48H184.646V52H182.646ZM182.646 70.48C182.646 75.9752 181.3 81.2129 178.162 85.0577C175.052 88.8681 170.077 91.44 162.526 91.44V93.44C170.576 93.44 176.161 90.6718 179.711 86.3223C183.233 82.0071 184.646 76.2648 184.646 70.48H182.646ZM162.526 91.44H159.046V93.44H162.526V91.44ZM159.046 91.44C150.912 91.44 145.75 89.0207 142.588 85.1202C139.392 81.178 138.086 75.5402 138.086 68.8H136.086C136.086 75.7398 137.42 81.922 141.034 86.3798C144.682 90.8793 150.5 93.44 159.046 93.44V91.44ZM138.086 68.8V23.44H136.086V68.8H138.086ZM138.086 23.44C138.086 17.1489 139.5 11.6845 142.743 7.80655C145.96 3.96104 151.107 1.52 158.926 1.52V-0.480001C150.666 -0.480001 144.893 2.11895 141.209 6.52344C137.553 10.8955 136.086 16.8911 136.086 23.44H138.086ZM158.926 1.52H162.526V-0.480001H158.926V1.52ZM162.526 1.52C170.253 1.52 175.22 3.73793 178.276 7.21063C181.353 10.7075 182.646 15.6491 182.646 21.4H184.646C184.646 15.3909 183.3 9.89248 179.777 5.88937C176.233 1.86206 170.64 -0.480001 162.526 -0.480001V1.52ZM182.646 21.4V36.04H184.646V21.4H182.646ZM183.646 35.04H164.086V37.04H183.646V35.04ZM165.086 36.04V22.24H163.086V36.04H165.086ZM165.086 22.24C165.086 20.7666 164.913 19.3994 164.246 18.3892C163.513 17.2782 162.333 16.8 160.846 16.8V18.8C161.88 18.8 162.32 19.1018 162.577 19.4908C162.9 19.9806 163.086 20.8334 163.086 22.24H165.086ZM160.846 16.8C159.415 16.8 158.213 17.1839 157.457 18.2835C156.774 19.2765 156.606 20.6645 156.606 22.24H158.606C158.606 20.6955 158.798 19.8634 159.105 19.4165C159.339 19.0761 159.758 18.8 160.846 18.8V16.8ZM156.606 22.24V69.88H158.606V22.24H156.606ZM156.606 69.88C156.606 71.4308 156.815 72.8482 157.507 73.8961C158.259 75.0346 159.454 75.56 160.966 75.56V73.56C159.958 73.56 159.474 73.2454 159.176 72.7939C158.818 72.2518 158.606 71.3292 158.606 69.88H156.606ZM160.966 75.56C161.701 75.56 162.369 75.4123 162.949 75.0928C163.532 74.7713 163.972 74.3063 164.291 73.7579C164.907 72.6983 165.086 71.3087 165.086 69.88H163.086C163.086 71.2113 162.905 72.1616 162.562 72.7521C162.401 73.0287 162.21 73.2162 161.984 73.341C161.754 73.4677 161.432 73.56 160.966 73.56V75.56ZM206.814 55.36L207.784 55.1182L205.814 55.36H206.814ZM206.814 91V92H207.814V91H206.814ZM187.014 91H186.014V92H187.014V91ZM187.014 1.72V0.719998H186.014V1.72H187.014ZM206.814 1.72H207.814V0.719998H206.814V1.72ZM206.814 33.28H205.814L207.773 33.561L206.814 33.28ZM216.054 1.72V0.719998H215.305L215.094 1.43902L216.054 1.72ZM235.734 1.72L236.69 2.01104L237.083 0.719998H235.734V1.72ZM223.614 41.56L222.657 41.2689L222.575 41.5386L222.646 41.8114L223.614 41.56ZM236.454 91V92H237.747L237.422 90.7486L236.454 91ZM215.694 91L214.723 91.2418L214.912 92H215.694V91ZM205.814 55.36V91H207.814V55.36H205.814ZM206.814 90H187.014V92H206.814V90ZM188.014 91V1.72H186.014V91H188.014ZM187.014 2.72H206.814V0.719998H187.014V2.72ZM205.814 1.72V33.28H207.814V1.72H205.814ZM207.773 33.561L217.013 2.00098L215.094 1.43902L205.854 32.999L207.773 33.561ZM216.054 2.72H235.734V0.719998H216.054V2.72ZM234.777 1.42895L222.657 41.2689L224.57 41.851L236.69 2.01104L234.777 1.42895ZM222.646 41.8114L235.486 91.2514L237.422 90.7486L224.582 41.3086L222.646 41.8114ZM236.454 90H215.694V92H236.454V90ZM216.664 90.7582L207.784 55.1182L205.843 55.6018L214.723 91.2418L216.664 90.7582Z" fill="white"/>
</svg>
