<svg width="22" height="22" viewBox="0 0 22 22" fill="none" xmlns="http://www.w3.org/2000/svg">
<path fill-rule="evenodd" clip-rule="evenodd" d="M1 11C1 5.47715 5.47715 1 11 1C16.5228 1 21 5.47715 21 11C21 16.5228 16.5228 21 11 21C5.47715 21 1 16.5228 1 11Z" stroke="#707070"/>
<path fill-rule="evenodd" clip-rule="evenodd" d="M10.4908 6.33492C10.5899 6.33476 10.6966 6.33481 10.8117 6.33486L11.0013 6.33492C12.521 6.33492 12.7011 6.34037 13.3011 6.36764C13.8561 6.39302 14.1572 6.48574 14.3579 6.56364C14.6235 6.6668 14.8128 6.79011 15.0119 6.98931C15.2111 7.18851 15.3344 7.37822 15.4378 7.64382C15.5157 7.84421 15.6085 8.14538 15.6338 8.70029C15.6611 9.30026 15.667 9.48049 15.667 10.9994C15.667 12.5183 15.6611 12.6985 15.6338 13.2985C15.6084 13.8534 15.5157 14.1546 15.4378 14.3549C15.3346 14.6205 15.2111 14.8097 15.0119 15.0087C14.8127 15.2079 14.6236 15.3312 14.3579 15.4344C14.1575 15.5127 13.8561 15.6051 13.3011 15.6305C12.7012 15.6578 12.521 15.6637 11.0013 15.6637C9.48162 15.6637 9.30151 15.6578 8.70154 15.6305C8.14663 15.6049 7.84546 15.5122 7.64471 15.4343C7.37912 15.3311 7.1894 15.2078 6.9902 15.0086C6.791 14.8094 6.66769 14.6202 6.56429 14.3545C6.48639 14.1541 6.39355 13.8529 6.3683 13.298C6.34103 12.698 6.33557 12.5178 6.33557 10.998C6.33557 9.47811 6.34103 9.29884 6.3683 8.69887C6.39367 8.14395 6.48639 7.84278 6.56429 7.64216C6.66745 7.37656 6.791 7.18685 6.9902 6.98765C7.1894 6.78845 7.37912 6.66514 7.64471 6.56175C7.84534 6.48349 8.14663 6.391 8.70154 6.36551C9.22657 6.3418 9.43004 6.33468 10.4908 6.3335V6.33492ZM14.0388 7.28232C13.6618 7.28232 13.3558 7.58788 13.3558 7.96506C13.3558 8.34211 13.6618 8.64802 14.0388 8.64802C14.4159 8.64802 14.7218 8.34211 14.7218 7.96506C14.7218 7.588 14.4159 7.28209 14.0388 7.28209V7.28232ZM8.07647 11.0029C8.07647 9.38878 9.38508 8.08014 10.9991 8.08008C12.6132 8.08008 13.9216 9.38875 13.9216 11.0029C13.9216 12.617 12.6134 13.925 10.9993 13.925C9.38514 13.925 8.07647 12.617 8.07647 11.0029Z" fill="#707070"/>
<path fill-rule="evenodd" clip-rule="evenodd" d="M11.0005 9.104C12.0482 9.104 12.8977 9.95333 12.8977 11.0011C12.8977 12.0488 12.0482 12.8983 11.0005 12.8983C9.95272 12.8983 9.10339 12.0488 9.10339 11.0011C9.10339 9.95333 9.95272 9.104 11.0005 9.104V9.104Z" fill="#707070"/>
</svg>
