<svg width="12" height="8" viewBox="0 0 12 8" fill="none" xmlns="http://www.w3.org/2000/svg">
<path fill-rule="evenodd" clip-rule="evenodd" d="M8.54408 7.90625C8.54408 7.90625 8.22274 7.52707 7.95496 7.19199C9.12427 6.86572 9.57057 6.14264 9.57057 6.14264C9.20461 6.38073 8.85649 6.54827 8.54408 6.66291C8.09778 6.84808 7.66933 6.97154 7.24981 7.04208C6.39291 7.20081 5.60742 7.15672 4.93797 7.03326C4.42919 6.93627 3.99181 6.79518 3.62584 6.65409C3.42055 6.57473 3.1974 6.47773 2.97425 6.35427C2.96086 6.34546 2.94747 6.33884 2.93408 6.33223C2.92069 6.32562 2.9073 6.319 2.89391 6.31018C2.87606 6.30137 2.86713 6.29255 2.85821 6.28373C2.69754 6.19555 2.60828 6.13382 2.60828 6.13382C2.60828 6.13382 3.03673 6.83927 4.17033 7.17435C3.90255 7.50944 3.57229 7.90625 3.57229 7.90625C1.59964 7.84452 0.849854 6.56591 0.849854 6.56591C0.849854 3.7265 2.1352 1.42499 2.1352 1.42499C3.42055 0.472643 4.64341 0.499097 4.64341 0.499097L4.73267 0.604913C3.12599 1.06345 2.38513 1.76008 2.38513 1.76008C2.38513 1.76008 2.5815 1.65426 2.91176 1.50435C3.86685 1.08991 4.62556 0.975271 4.93797 0.948817L4.95798 0.945475C5.00301 0.937901 5.04296 0.931181 5.08971 0.931181C5.6342 0.860636 6.25009 0.843 6.89277 0.913545C7.74074 1.01054 8.65119 1.25745 9.5795 1.76008C9.5795 1.76008 8.87434 1.09872 7.35692 0.640185L7.48188 0.499097C7.48188 0.499097 8.70475 0.472643 9.99009 1.42499C9.99009 1.42499 11.2754 3.7265 11.2754 6.56591C11.2754 6.56591 10.5167 7.84452 8.54408 7.90625ZM4.64486 3.94885C4.14009 3.94885 3.74158 4.4028 3.74158 4.95662C3.74158 5.51045 4.14894 5.9644 4.64486 5.9644C5.14964 5.9644 5.54814 5.51045 5.54814 4.95662C5.557 4.4028 5.14964 3.94885 4.64486 3.94885ZM6.974 4.95662C6.974 4.4028 7.37251 3.94885 7.87728 3.94885C8.38206 3.94885 8.78056 4.4028 8.78056 4.95662C8.78056 5.51045 8.38206 5.9644 7.87728 5.9644C7.38137 5.9644 6.974 5.51045 6.974 4.95662Z" fill="#707070"/>
</svg>
