<svg width="22" height="22" viewBox="0 0 22 22" fill="none" xmlns="http://www.w3.org/2000/svg">
<path d="M1.5 11C1.5 5.75329 5.75329 1.5 11 1.5V0.5C5.20101 0.5 0.5 5.20101 0.5 11H1.5ZM11 1.5C16.2467 1.5 20.5 5.75329 20.5 11H21.5C21.5 5.20101 16.799 0.5 11 0.5V1.5ZM20.5 11C20.5 16.2467 16.2467 20.5 11 20.5V21.5C16.799 21.5 21.5 16.799 21.5 11H20.5ZM11 20.5C5.75329 20.5 1.5 16.2467 1.5 11H0.5C0.5 16.799 5.20101 21.5 11 21.5V20.5Z" fill="#707070"/>
<path fill-rule="evenodd" clip-rule="evenodd" d="M13.5441 14.9062C13.5441 14.9062 13.2227 14.5271 12.955 14.192C14.1243 13.8657 14.5706 13.1426 14.5706 13.1426C14.2046 13.3807 13.8565 13.5483 13.5441 13.6629C13.0978 13.8481 12.6693 13.9715 12.2498 14.0421C11.3929 14.2008 10.6074 14.1567 9.93797 14.0333C9.42919 13.9363 8.99181 13.7952 8.62584 13.6541C8.42055 13.5747 8.1974 13.4777 7.97425 13.3543C7.96086 13.3455 7.94747 13.3388 7.93408 13.3322C7.92069 13.3256 7.9073 13.319 7.89391 13.3102C7.87606 13.3014 7.86713 13.2925 7.85821 13.2837C7.69754 13.1955 7.60828 13.1338 7.60828 13.1338C7.60828 13.1338 8.03673 13.8393 9.17033 14.1744C8.90255 14.5094 8.57229 14.9062 8.57229 14.9062C6.59964 14.8445 5.84985 13.5659 5.84985 13.5659C5.84985 10.7265 7.1352 8.42499 7.1352 8.42499C8.42055 7.47264 9.64341 7.4991 9.64341 7.4991L9.73267 7.60491C8.12599 8.06345 7.38513 8.76008 7.38513 8.76008C7.38513 8.76008 7.5815 8.65426 7.91176 8.50435C8.86685 8.08991 9.62556 7.97527 9.93797 7.94882L9.95798 7.94547C10.003 7.9379 10.043 7.93118 10.0897 7.93118C10.6342 7.86064 11.2501 7.843 11.8928 7.91354C12.7407 8.01054 13.6512 8.25745 14.5795 8.76008C14.5795 8.76008 13.8743 8.09872 12.3569 7.64019L12.4819 7.4991C12.4819 7.4991 13.7047 7.47264 14.9901 8.42499C14.9901 8.42499 16.2754 10.7265 16.2754 13.5659C16.2754 13.5659 15.5167 14.8445 13.5441 14.9062ZM9.64486 10.9488C9.14009 10.9488 8.74158 11.4028 8.74158 11.9566C8.74158 12.5104 9.14894 12.9644 9.64486 12.9644C10.1496 12.9644 10.5481 12.5104 10.5481 11.9566C10.557 11.4028 10.1496 10.9488 9.64486 10.9488ZM11.974 11.9566C11.974 11.4028 12.3725 10.9488 12.8773 10.9488C13.3821 10.9488 13.7806 11.4028 13.7806 11.9566C13.7806 12.5104 13.3821 12.9644 12.8773 12.9644C12.3814 12.9644 11.974 12.5104 11.974 11.9566Z" fill="#707070"/>
</svg>
