<svg width="20" height="20" viewBox="0 0 20 20" fill="none" xmlns="http://www.w3.org/2000/svg">
<path fill-rule="evenodd" clip-rule="evenodd" d="M0 10C0 4.47715 4.47715 0 10 0C15.5228 0 20 4.47715 20 10C20 15.5228 15.5228 20 10 20C4.47715 20 0 15.5228 0 10Z" fill="white"/>
<path fill-rule="evenodd" clip-rule="evenodd" d="M16.0001 11.5697V10.9162C16.0001 10.855 15.9634 10.8141 15.8531 10.8754L13.0611 11.7739C13.0428 11.7739 13.0428 11.7739 13.0244 11.7943C12.7885 12.072 12.584 12.2798 12.4744 12.3912C12.4389 12.4272 12.4133 12.4532 12.3999 12.4682C12.2346 12.6316 12.0141 12.7132 11.7937 12.7132H10.7834V11.5697H11.5917C11.61 11.5697 11.6284 11.5697 11.6468 11.5493L11.757 11.4472C11.8121 11.4063 11.8672 11.3451 11.9223 11.2838L11.9223 11.2838C11.9599 11.2559 11.989 11.2185 12.0154 11.1845C12.0276 11.1688 12.0392 11.1538 12.0509 11.1409C12.0885 11.113 12.1176 11.0755 12.144 11.0416C12.1562 11.0258 12.1678 11.0109 12.1794 10.9979C12.207 10.9571 12.2391 10.9162 12.2713 10.8754C12.3034 10.8346 12.3356 10.7937 12.3631 10.7529C12.4182 10.6916 12.455 10.6304 12.4917 10.5691L12.4917 10.5691C12.5101 10.5385 12.533 10.5078 12.556 10.4772C12.579 10.4466 12.6019 10.4159 12.6203 10.3853C12.6332 10.3423 12.6551 10.3094 12.6797 10.2724C12.6902 10.2567 12.7012 10.2402 12.7121 10.222L12.7121 10.2219C12.7489 10.1607 12.7856 10.0994 12.804 10.0586L12.804 10.0585C12.8775 9.91561 12.9509 9.77269 13.006 9.62976C13.0341 9.56736 13.0514 9.50496 13.0663 9.45167C13.0708 9.4352 13.0752 9.4196 13.0795 9.40513C13.0887 9.36429 13.0979 9.32856 13.1071 9.29282C13.1162 9.25709 13.1254 9.22135 13.1346 9.18051C13.1355 9.17127 13.1365 9.16208 13.1374 9.15294C13.1547 8.98025 13.1704 8.82412 13.153 8.64958C13.153 8.58832 13.153 8.52705 13.1346 8.48621C13.1346 8.46579 13.1346 8.42495 13.1162 8.38411C13.0979 8.20033 13.0428 8.03696 12.9693 7.8736C12.9601 7.84297 12.9463 7.81234 12.9326 7.78171C12.9188 7.75108 12.905 7.72045 12.8958 7.68982C12.8591 7.62856 12.8269 7.56729 12.7948 7.50603C12.7626 7.44477 12.7305 7.38351 12.6938 7.32225C12.6822 7.28379 12.6635 7.25339 12.6465 7.22597C12.6365 7.20972 12.6271 7.19451 12.6203 7.17931C12.5927 7.13846 12.5606 7.09252 12.5284 7.04657C12.4963 7.00063 12.4642 6.95468 12.4366 6.91384C12.4091 6.88321 12.3861 6.84747 12.3631 6.81174C12.3402 6.776 12.3172 6.74027 12.2897 6.70964C12.2621 6.67901 12.2391 6.64838 12.2162 6.61775C12.1932 6.58712 12.1703 6.55648 12.1427 6.52585C11.959 6.30123 11.7753 6.09702 11.61 5.93366C11.5982 5.90729 11.5786 5.88943 11.5564 5.86909C11.5442 5.85793 11.5312 5.84602 11.5182 5.83156C11.3896 5.70903 11.261 5.58651 11.1692 5.50483C11.1141 5.46399 11.0773 5.42316 11.0406 5.38232L11.0406 5.38231C10.9855 5.34147 10.9488 5.30063 10.9304 5.28021C10.9304 5.25978 10.912 5.25978 10.912 5.25978L10.8018 5.21894V4.23876C10.8018 4.0754 10.7467 3.93246 10.6549 3.83035C10.563 3.72825 10.4344 3.66699 10.2875 3.66699C10.012 3.66699 9.77318 3.93246 9.77318 4.25918V4.93306L9.71807 4.91264L9.57113 4.8718L9.44255 4.83096L8.43228 4.52465C8.39555 4.50423 8.35881 4.56549 8.37718 4.60633L8.54249 4.93306L8.5976 5.05558C8.60678 5.08621 8.62056 5.11684 8.63434 5.14747C8.64811 5.1781 8.66189 5.20873 8.67107 5.23937C8.68026 5.27 8.69403 5.29552 8.70781 5.32105C8.72159 5.34657 8.73536 5.3721 8.74455 5.40273C8.79965 5.52525 8.85476 5.66819 8.90986 5.81114L9.02007 6.11744C9.11192 6.36249 9.20376 6.64838 9.27723 6.93426C9.30801 7.00269 9.32589 7.08544 9.34168 7.15852C9.34474 7.17268 9.34772 7.18647 9.3507 7.19972L9.36907 7.24057C9.40581 7.38351 9.42418 7.50603 9.44255 7.64898C9.46092 7.73066 9.47929 7.83276 9.47929 7.91444C9.47929 7.96549 9.48388 8.01654 9.48847 8.06759C9.49306 8.11864 9.49765 8.1697 9.49765 8.22075C9.51602 8.32285 9.51602 8.42495 9.51602 8.50663C9.51602 8.75168 9.49765 8.97631 9.46092 9.18051L9.40581 9.36429C9.39897 9.3871 9.38959 9.41273 9.37955 9.44015C9.36264 9.48637 9.34387 9.53764 9.33234 9.58892C9.31397 9.65017 9.2956 9.69101 9.27724 9.73184L9.27723 9.73186C9.18539 9.97691 9.07518 10.2424 8.9466 10.467C8.76291 10.8141 8.5976 11.1 8.46902 11.3042C8.45065 11.3451 8.43228 11.3655 8.41391 11.3859C8.37718 11.4472 8.41391 11.5289 8.48739 11.5289H9.79155V12.6724H8.46902C8.12002 12.6724 7.78939 12.4682 7.62407 12.1006C7.5506 11.9168 7.51386 11.7126 7.53223 11.5289C7.53223 11.488 7.49549 11.4268 7.44039 11.4268H4.74022C4.70349 11.4268 4.66675 11.4676 4.66675 11.5084V11.5697C4.66675 13.4688 6.04438 15.0003 7.73428 15.0003H12.5284C13.4142 15.0003 13.9222 14.0986 14.424 13.2078C14.5673 12.9533 14.7102 12.6996 14.8612 12.4682C15.1184 12.0598 15.7613 11.7331 15.945 11.6514C15.9817 11.631 16.0001 11.6105 16.0001 11.5697ZM5.40193 10.0791L5.36519 10.1403C5.32845 10.2016 5.36519 10.2833 5.42029 10.3037H7.88165C7.91839 10.3037 7.93676 10.2833 7.95513 10.2629L7.95513 10.2629C7.99186 10.222 8.0286 10.1608 8.04697 10.0995C8.26739 9.71152 8.45107 9.28269 8.52455 8.95596C8.67149 8.17998 8.34086 6.95476 7.93676 5.95416C7.90002 5.87247 7.82655 5.87247 7.78981 5.93373L5.40193 10.0791Z" fill="#1E2429"/>
</svg>
