<svg width="24" height="25" viewBox="0 0 24 25" fill="none" xmlns="http://www.w3.org/2000/svg">
<path d="M18.9847 12.926L19.6314 15.8655C20.2938 16.1581 21.8081 16.9954 22.5669 18.0033C14.3869 22.0651 5.06061 19.6957 1.41994 18.0033C2.09046 16.7893 3.4163 15.7923 3.99541 15.4455C4.02585 13.8575 4.46462 12.6206 4.6802 12.2007L5.51717 14.8347L6.20196 14.682L6.62044 12.4679L7.87589 14.682L10.8814 13.3841L12.4411 14.3003L14.4955 13.3841L18.2238 14.9493L18.9847 12.926Z" fill="#B3BBBE"/>
<path d="M12.1759 24.2451C3.75705 24.2451 3.09202 18.5436 3.79953 15.3293V11.9237L4.55757 9.74258L8.46148 8.09717L18.8466 9.0538L20.3627 14.5257C21.1334 17.5232 20.3627 24.2451 12.1759 24.2451Z" fill="#1D1D1D"/>
<ellipse cx="8.22627" cy="15.8277" rx="2.92038" ry="3.60752" fill="white"/>
<ellipse cx="1.71787" cy="2.14733" rx="1.71787" ry="2.14733" transform="matrix(1 0 0 -1 7.02377 18.5767)" fill="#487197"/>
<ellipse cx="15.2696" cy="15.8277" rx="2.92038" ry="3.60752" fill="white"/>
<ellipse cx="1.71787" cy="2.14733" rx="1.71787" ry="2.14733" transform="matrix(1 0 0 -1 13.2081 18.5767)" fill="#487197"/>
<path d="M11.9845 1.0542C4.4138 1.0542 1.29421 15.0644 1.0279 16.7822C0.955201 17.2512 1.12556 17.6594 1.41985 18.0038C2.09037 16.7899 3.41621 15.7929 3.99532 15.4461C4.02575 13.858 4.46453 12.6212 4.68011 12.2013L5.51707 14.8353L6.20186 14.6826L6.93781 12.7357L7.87579 14.6826L10.8813 13.3847L12.4411 14.3009L14.4954 13.3847L17.8463 14.6826L18.6193 12.2013L19.6313 15.866C20.2937 16.1587 21.808 16.996 22.5668 18.0038C22.8822 17.6571 23.0636 17.2481 22.9792 16.7822C22.6749 15.1025 19.5553 1.0542 11.9845 1.0542Z" fill="white"/>
<path d="M11.9734 1.0542C4.40263 1.0542 1.28304 15.0644 1.01673 16.7822C0.944031 17.2512 1.11439 17.6594 1.40868 18.0038C2.0792 16.7899 3.40504 15.7929 3.98415 15.4461C4.01459 13.858 4.45336 12.6212 4.66894 12.2013L5.50591 14.8353C5.50591 14.8353 6.30105 14.7727 6.31441 14.6941C7.82867 5.78819 11.9734 1.0542 11.9734 1.0542Z" fill="#B3BBBE"/>
<path d="M22.5668 18.0038C22.8822 17.6571 23.0636 17.2481 22.9792 16.7822C22.6749 15.1025 19.5553 1.0542 11.9845 1.0542C4.4138 1.0542 1.29421 15.0644 1.0279 16.7822C0.955201 17.2512 1.12556 17.6594 1.41985 18.0038M22.5668 18.0038C21.808 16.996 20.2937 16.1587 19.6313 15.866L18.7052 10.846L17.8463 14.8353L13.5516 13.3847L12.3491 14.1959L10.8813 13.3847L7.87579 14.6826L7.02371 12.9075L6.20186 14.6826L5.51707 14.8353L4.87637 11.6191L3.99532 15.4461C3.41621 15.7929 2.09037 16.7899 1.41985 18.0038M22.5668 18.0038C21.2987 18.6335 20.003 19.1087 18.7052 19.4557M1.41985 18.0038C2.28287 18.405 3.46538 18.8442 4.87637 19.2268" stroke="#1D1D1D" stroke-width="1.03072" stroke-linejoin="round"/>
<path d="M10.5398 20.7997C9.75916 21.101 9.05682 20.6776 8.80322 20.4282C9.58483 20.0297 11.2415 19.3003 11.8412 19.2911C12.5075 19.2808 14.1493 20.238 14.9613 20.7514C14.735 20.9167 14.1593 21.1998 13.6665 21.0102C13.0505 20.7731 11.5155 20.4231 10.5398 20.7997Z" fill="#F3C039"/>
</svg>
