<svg width="26" height="26" viewBox="0 0 26 26" fill="none" xmlns="http://www.w3.org/2000/svg">
<path fill-rule="evenodd" clip-rule="evenodd" d="M1 13C1 6.37258 6.37258 1 13 1C19.6274 1 25 6.37258 25 13C25 19.6274 19.6274 25 13 25C6.37258 25 1 19.6274 1 13Z" stroke="#E50B0B"/>
<path fill-rule="evenodd" clip-rule="evenodd" d="M12.3887 7.40173C12.5077 7.40155 12.6357 7.4016 12.7738 7.40167L13.0014 7.40173C14.8249 7.40173 15.0411 7.40828 15.7612 7.441C16.4271 7.47145 16.7885 7.58272 17.0292 7.6762C17.3479 7.79999 17.5752 7.94796 17.8141 8.187C18.0531 8.42604 18.2011 8.6537 18.3251 8.97242C18.4186 9.21288 18.53 9.57428 18.5603 10.2402C18.5931 10.9601 18.6002 11.1764 18.6002 12.9991C18.6002 14.8218 18.5931 15.038 18.5603 15.758C18.5299 16.4239 18.4186 16.7853 18.3251 17.0258C18.2014 17.3445 18.0531 17.5714 17.8141 17.8103C17.575 18.0494 17.3481 18.1973 17.0292 18.3211C16.7887 18.415 16.4271 18.526 15.7612 18.5565C15.0412 18.5892 14.8249 18.5963 13.0014 18.5963C11.1777 18.5963 10.9616 18.5892 10.2416 18.5565C9.57573 18.5257 9.21433 18.4145 8.97344 18.321C8.65472 18.1972 8.42706 18.0492 8.18802 17.8102C7.94898 17.5711 7.80101 17.344 7.67693 17.0252C7.58345 16.7847 7.47204 16.4233 7.44174 15.7574C7.40901 15.0375 7.40247 14.8212 7.40247 12.9974C7.40247 11.1736 7.40901 10.9584 7.44174 10.2385C7.47219 9.57258 7.58345 9.21117 7.67693 8.97042C7.80072 8.65171 7.94898 8.42405 8.18802 8.18501C8.42706 7.94597 8.65472 7.798 8.97344 7.67392C9.21418 7.58002 9.57573 7.46903 10.2416 7.43844C10.8717 7.40998 11.1158 7.40145 12.3887 7.40002V7.40173ZM16.6466 8.53831C16.1941 8.53831 15.827 8.90498 15.827 9.35759C15.827 9.81006 16.1941 10.1772 16.6466 10.1772C17.0991 10.1772 17.4662 9.81006 17.4662 9.35759C17.4662 8.90512 17.0991 8.53803 16.6466 8.53803V8.53831ZM9.49199 13.0037C9.49199 11.0668 11.0623 9.4964 12.9992 9.49633C14.9361 9.49633 16.5061 11.0667 16.5061 13.0037C16.5061 14.9406 14.9363 16.5103 12.9993 16.5103C11.0624 16.5103 9.49199 14.9406 9.49199 13.0037Z" fill="#E50B0B"/>
<path fill-rule="evenodd" clip-rule="evenodd" d="M13.0006 10.7251C14.2578 10.7251 15.2771 11.7443 15.2771 13.0017C15.2771 14.2589 14.2578 15.2782 13.0006 15.2782C11.7432 15.2782 10.724 14.2589 10.724 13.0017C10.724 11.7443 11.7432 10.7251 13.0006 10.7251V10.7251Z" fill="#E50B0B"/>
</svg>
