<svg width="97" height="100" viewBox="0 0 97 100" fill="none" xmlns="http://www.w3.org/2000/svg">
<path d="M77.2307 52.4679L79.9317 64.7441C82.6978 65.9664 89.0222 69.4632 92.1911 73.6722C58.0289 90.6356 19.0791 80.7403 3.87445 73.6722C6.67476 68.6023 12.2119 64.4385 14.6305 62.9903C14.7576 56.358 16.59 51.1925 17.4904 49.4387L20.9858 60.4394L23.8457 59.8017L25.5934 50.5547L30.8366 59.8017L43.3884 54.3811L49.9027 58.2074L58.4824 54.3811L74.053 60.9177L77.2307 52.4679Z" fill="#B3BBBE"/>
<path d="M48.7947 99.7395C13.635 99.7395 10.8576 75.928 13.8124 62.5041V48.2812L16.9782 39.1721L33.2822 32.3003L76.654 36.2955L82.9857 59.1481C86.2043 71.6665 82.9857 99.7395 48.7947 99.7395Z" fill="#1D1D1D"/>
<ellipse cx="32.2999" cy="64.5848" rx="12.1965" ry="15.0662" fill="white"/>
<ellipse cx="7.17438" cy="8.96798" rx="7.17438" ry="8.96798" transform="matrix(1 0 0 -1 27.2779 76.0645)" fill="#487197"/>
<ellipse cx="61.715" cy="64.5848" rx="12.1965" ry="15.0662" fill="white"/>
<ellipse cx="7.17438" cy="8.96798" rx="7.17438" ry="8.96798" transform="matrix(1 0 0 -1 53.1058 76.0645)" fill="#487197"/>
<path d="M47.9956 2.88525C16.3778 2.88525 3.3493 61.3964 2.23711 68.5707C1.93349 70.5293 2.64496 72.2341 3.87403 73.6725C6.67434 68.6026 12.2115 64.4388 14.63 62.9907C14.7571 56.3583 16.5896 51.1928 17.4899 49.439L20.9854 60.4398L23.8453 59.802L26.9189 51.6711L30.8362 59.802L43.388 54.3814L49.9022 58.2077L58.482 54.3814L72.4762 59.802L75.7047 49.439L79.9313 64.7444C82.6974 65.9667 89.0218 69.4636 92.1906 73.6725C93.5078 72.2247 94.2656 70.5165 93.913 68.5707C92.642 61.5558 79.6135 2.88525 47.9956 2.88525Z" fill="white"/>
<path d="M47.949 2.88525C16.3311 2.88525 3.30266 61.3964 2.19048 68.5707C1.88686 70.5293 2.59833 72.2341 3.8274 73.6725C6.6277 68.6026 12.1649 64.4388 14.5834 62.9907C14.7105 56.3583 16.543 51.1928 17.4433 49.439L20.9388 60.4398C20.9388 60.4398 24.2595 60.1781 24.3153 59.8498C30.6394 22.6559 47.949 2.88525 47.949 2.88525Z" fill="#B3BBBE"/>
<path d="M92.1906 73.6725C93.5078 72.2246 94.2656 70.5165 93.913 68.5707C92.642 61.5558 79.6135 2.88525 47.9956 2.88525C16.3778 2.88525 3.3493 61.3963 2.23711 68.5707C1.93349 70.5293 2.64496 72.2341 3.87403 73.6725M92.1906 73.6725C89.0218 69.4635 82.6974 65.9667 79.9313 64.7444L76.0634 43.7792L72.4762 60.4398L54.5402 54.3814L49.5182 57.7693L43.388 54.3814L30.8362 59.802L27.2776 52.3885L23.8453 59.802L20.9854 60.4398L18.3096 47.0077L14.63 62.9907C12.2115 64.4388 6.67433 68.6026 3.87403 73.6725M92.1906 73.6725C86.8945 76.3023 81.4833 78.2866 76.0634 79.736M3.87403 73.6725C7.47828 75.348 12.4168 77.1824 18.3096 78.7802" stroke="#1D1D1D" stroke-width="4.30463" stroke-linejoin="round"/>
<path d="M41.9618 85.3493C38.7017 86.6076 35.7685 84.8393 34.7094 83.7979C37.9737 82.1335 44.8923 79.0874 47.3969 79.0488C50.1799 79.0059 57.0362 83.0036 60.4275 85.1476C59.4825 85.8379 57.078 87.0205 55.02 86.2285C52.4476 85.2384 46.0369 83.7764 41.9618 85.3493Z" fill="#F3C039"/>
</svg>
