<svg width="26" height="26" viewBox="0 0 26 26" fill="none" xmlns="http://www.w3.org/2000/svg">
<path d="M1.5 13C1.5 6.64873 6.64873 1.5 13 1.5V0.5C6.09644 0.5 0.5 6.09644 0.5 13H1.5ZM13 1.5C19.3513 1.5 24.5 6.64873 24.5 13H25.5C25.5 6.09644 19.9036 0.5 13 0.5V1.5ZM24.5 13C24.5 19.3513 19.3513 24.5 13 24.5V25.5C19.9036 25.5 25.5 19.9036 25.5 13H24.5ZM13 24.5C6.64873 24.5 1.5 19.3513 1.5 13H0.5C0.5 19.9036 6.09644 25.5 13 25.5V24.5Z" fill="#E50B0B"/>
<path fill-rule="evenodd" clip-rule="evenodd" d="M16.0529 17.6885C16.0529 17.6885 15.6673 17.2335 15.346 16.8314C16.7491 16.4398 17.2847 15.5721 17.2847 15.5721C16.8455 15.8579 16.4278 16.0589 16.0529 16.1965C15.5173 16.4187 15.0032 16.5668 14.4998 16.6515C13.4715 16.8419 12.5289 16.789 11.7256 16.6409C11.115 16.5245 10.5902 16.3552 10.151 16.1859C9.90466 16.0906 9.63688 15.9742 9.36909 15.8261C9.35303 15.8155 9.33696 15.8076 9.32089 15.7997C9.30483 15.7917 9.28876 15.7838 9.27269 15.7732C9.25127 15.7626 9.24056 15.752 9.22985 15.7415C9.03705 15.6356 8.92993 15.5616 8.92993 15.5616C8.92993 15.5616 9.44407 16.4081 10.8044 16.8102C10.4831 17.2123 10.0867 17.6885 10.0867 17.6885C7.71957 17.6144 6.81982 16.0801 6.81982 16.0801C6.81982 12.6728 8.36224 9.91097 8.36224 9.91097C9.90466 8.76815 11.3721 8.79989 11.3721 8.79989L11.4792 8.92687C9.55119 9.47712 8.66215 10.3131 8.66215 10.3131C8.66215 10.3131 8.8978 10.1861 9.29412 10.0062C10.4402 9.50886 11.3507 9.3713 11.7256 9.33956L11.7496 9.33555C11.8036 9.32646 11.8515 9.31839 11.9077 9.31839C12.561 9.23374 13.3001 9.21258 14.0713 9.29723C15.0889 9.41363 16.1814 9.70991 17.2954 10.3131C17.2954 10.3131 16.4492 9.51944 14.6283 8.9692L14.7783 8.79989C14.7783 8.79989 16.2457 8.76815 17.7881 9.91097C17.7881 9.91097 19.3305 12.6728 19.3305 16.0801C19.3305 16.0801 18.4201 17.6144 16.0529 17.6885ZM11.3739 12.9392C10.7681 12.9392 10.2899 13.4839 10.2899 14.1485C10.2899 14.8131 10.7788 15.3578 11.3739 15.3578C11.9796 15.3578 12.4578 14.8131 12.4578 14.1485C12.4684 13.4839 11.9796 12.9392 11.3739 12.9392ZM14.1688 14.1485C14.1688 13.4839 14.647 12.9392 15.2528 12.9392C15.8585 12.9392 16.3367 13.4839 16.3367 14.1485C16.3367 14.8131 15.8585 15.3578 15.2528 15.3578C14.6577 15.3578 14.1688 14.8131 14.1688 14.1485Z" fill="#E50B0B"/>
</svg>
