<svg width="26" height="26" viewBox="0 0 26 26" fill="none" xmlns="http://www.w3.org/2000/svg">
<path fill-rule="evenodd" clip-rule="evenodd" d="M1 13C1 6.37258 6.37258 1 13 1C19.6274 1 25 6.37258 25 13C25 19.6274 19.6274 25 13 25C6.37258 25 1 19.6274 1 13Z" stroke="white"/>
<path fill-rule="evenodd" clip-rule="evenodd" d="M12.3886 7.40173C12.5076 7.40155 12.6355 7.4016 12.7736 7.40167L13.0013 7.40173C14.8248 7.40173 15.0409 7.40828 15.761 7.441C16.4269 7.47145 16.7883 7.58272 17.0291 7.6762C17.3478 7.79999 17.575 7.94796 17.8139 8.187C18.053 8.42604 18.2009 8.6537 18.325 8.97242C18.4185 9.21288 18.5299 9.57428 18.5602 10.2402C18.5929 10.9601 18.6001 11.1764 18.6001 12.9991C18.6001 14.8218 18.5929 15.038 18.5602 15.758C18.5298 16.4239 18.4185 16.7853 18.325 17.0258C18.2012 17.3445 18.053 17.5714 17.8139 17.8103C17.5749 18.0494 17.3479 18.1973 17.0291 18.3211C16.7886 18.415 16.4269 18.526 15.761 18.5565C15.0411 18.5892 14.8248 18.5963 13.0013 18.5963C11.1776 18.5963 10.9615 18.5892 10.2415 18.5565C9.57561 18.5257 9.21421 18.4145 8.97332 18.321C8.6546 18.1972 8.42694 18.0492 8.1879 17.8102C7.94886 17.5711 7.80088 17.344 7.67681 17.0252C7.58333 16.7847 7.47192 16.4233 7.44161 15.7574C7.40889 15.0375 7.40234 14.8212 7.40234 12.9974C7.40234 11.1736 7.40889 10.9584 7.44161 10.2385C7.47206 9.57258 7.58333 9.21117 7.67681 8.97042C7.8006 8.65171 7.94886 8.42405 8.1879 8.18501C8.42694 7.94597 8.6546 7.798 8.97332 7.67392C9.21406 7.58002 9.57561 7.46903 10.2415 7.43844C10.8715 7.40998 11.1157 7.40145 12.3886 7.40002V7.40173ZM16.6465 8.53831C16.194 8.53831 15.8269 8.90498 15.8269 9.35759C15.8269 9.81006 16.194 10.1772 16.6465 10.1772C17.0989 10.1772 17.466 9.81006 17.466 9.35759C17.466 8.90512 17.0989 8.53803 16.6465 8.53803V8.53831ZM9.49187 13.0037C9.49187 11.0668 11.0622 9.4964 12.9991 9.49633C14.936 9.49633 16.506 11.0667 16.506 13.0037C16.506 14.9406 14.9361 16.5103 12.9992 16.5103C11.0623 16.5103 9.49187 14.9406 9.49187 13.0037Z" fill="white"/>
<path fill-rule="evenodd" clip-rule="evenodd" d="M13.0004 10.7251C14.2577 10.7251 15.277 11.7443 15.277 13.0017C15.277 14.2589 14.2577 15.2782 13.0004 15.2782C11.7431 15.2782 10.7239 14.2589 10.7239 13.0017C10.7239 11.7443 11.7431 10.7251 13.0004 10.7251V10.7251Z" fill="white"/>
</svg>
