<svg width="26" height="26" viewBox="0 0 26 26" fill="none" xmlns="http://www.w3.org/2000/svg">
<path fill-rule="evenodd" clip-rule="evenodd" d="M1 13C1 6.37258 6.37258 1 13 1C19.6274 1 25 6.37258 25 13C25 19.6274 19.6274 25 13 25C6.37258 25 1 19.6274 1 13Z" stroke="#E50B0B"/>
<path fill-rule="evenodd" clip-rule="evenodd" d="M12.8267 10.6588L12.8527 11.0913L12.4192 11.0383C10.8411 10.8353 9.46247 10.1468 8.29193 8.99043L7.71966 8.41667L7.57226 8.84037C7.26012 9.78487 7.45955 10.7823 8.10984 11.4532C8.45667 11.8239 8.37864 11.8769 7.78036 11.6562C7.57226 11.5856 7.39018 11.5326 7.37284 11.5591C7.31214 11.6209 7.52024 12.4242 7.68498 12.7419C7.91042 13.1833 8.36996 13.6158 8.87286 13.8718L9.29773 14.0748L8.79483 14.0837C8.30927 14.0837 8.29193 14.0925 8.34395 14.2779C8.51737 14.8516 9.20235 15.4607 9.96537 15.7255L10.5029 15.9109L10.0347 16.1933C9.34108 16.5994 8.52604 16.8289 7.71099 16.8466C7.32081 16.8554 7 16.8907 7 16.9172C7 17.0054 8.05782 17.4998 8.67344 17.694C10.5203 18.2677 12.714 18.0206 14.3614 17.0407C15.5319 16.3434 16.7025 14.9576 17.2487 13.6158C17.5435 12.9008 17.8383 11.5944 17.8383 10.9677C17.8383 10.5617 17.8643 10.5087 18.3499 10.0232C18.636 9.74073 18.9048 9.43178 18.9568 9.34351C19.0435 9.1758 19.0349 9.1758 18.5927 9.32586C17.8557 9.59067 17.7516 9.55536 18.1158 9.15814C18.3846 8.87568 18.7054 8.36371 18.7054 8.21364C18.7054 8.18716 18.5753 8.2313 18.4279 8.31074C18.2719 8.39901 17.925 8.53142 17.6649 8.61086L17.1967 8.76092L16.7718 8.46963C16.5377 8.31074 16.2082 8.1342 16.0348 8.08124C15.5926 7.95766 14.9163 7.97531 14.5175 8.11655C13.4336 8.51377 12.7486 9.53771 12.8267 10.6588Z" fill="#E50B0B"/>
</svg>
