<svg width="10" height="10" viewBox="0 0 10 10" fill="none" xmlns="http://www.w3.org/2000/svg">
<path fill-rule="evenodd" clip-rule="evenodd" d="M4.49078 0.334919C4.58991 0.334764 4.69656 0.334812 4.81165 0.334863L5.00134 0.334919C6.52095 0.334919 6.70106 0.340373 7.30115 0.367645C7.85606 0.393019 8.15723 0.485741 8.35785 0.563642C8.62345 0.666799 8.81281 0.790113 9.01189 0.989312C9.21109 1.18851 9.33441 1.37822 9.4378 1.64382C9.5157 1.84421 9.60854 2.14538 9.6338 2.70029C9.66107 3.30026 9.667 3.48049 9.667 4.99938C9.667 6.51827 9.66107 6.6985 9.6338 7.29847C9.60842 7.85338 9.5157 8.15455 9.4378 8.35493C9.33464 8.62053 9.21109 8.80966 9.01189 9.00874C8.81269 9.20793 8.62357 9.33125 8.35785 9.4344C8.15747 9.51266 7.85606 9.60515 7.30115 9.63052C6.70118 9.65779 6.52095 9.66372 5.00134 9.66372C3.48162 9.66372 3.30151 9.65779 2.70154 9.63052C2.14663 9.60491 1.84546 9.51219 1.64471 9.43429C1.37912 9.33113 1.1894 9.20782 0.990202 9.00862C0.791003 8.80942 0.667689 8.62018 0.564295 8.35446C0.486394 8.15408 0.393553 7.85291 0.368297 7.29799C0.341026 6.69803 0.335571 6.5178 0.335571 4.99796C0.335571 3.47811 0.341026 3.29884 0.368297 2.69887C0.393671 2.14395 0.486394 1.84278 0.564295 1.64216C0.667452 1.37656 0.791003 1.18685 0.990202 0.987652C1.1894 0.788453 1.37912 0.665139 1.64471 0.561745C1.84534 0.483488 2.14663 0.391003 2.70154 0.36551C3.22657 0.341796 3.43004 0.334682 4.49078 0.333496V0.334919ZM8.03881 1.28232C7.66175 1.28232 7.35584 1.58788 7.35584 1.96506C7.35584 2.34211 7.66175 2.64802 8.03881 2.64802C8.41587 2.64802 8.72178 2.34211 8.72178 1.96506C8.72178 1.588 8.41587 1.28209 8.03881 1.28209V1.28232ZM2.07647 5.00285C2.07647 3.38878 3.38508 2.08014 4.99913 2.08008C6.61324 2.08008 7.92156 3.38875 7.92156 5.00285C7.92156 6.61696 6.61336 7.92503 4.99925 7.92503C3.38514 7.92503 2.07647 6.61696 2.07647 5.00285Z" fill="#707070"/>
<path fill-rule="evenodd" clip-rule="evenodd" d="M5.00053 3.104C6.04822 3.104 6.89767 3.95333 6.89767 5.00114C6.89767 6.04883 6.04822 6.89827 5.00053 6.89827C3.95272 6.89827 3.10339 6.04883 3.10339 5.00114C3.10339 3.95333 3.95272 3.104 5.00053 3.104V3.104Z" fill="#707070"/>
</svg>
