<svg width="22" height="21" viewBox="0 0 22 21" fill="none" xmlns="http://www.w3.org/2000/svg">
<g clip-path="url(#clip0_202_668)">
<path d="M20.8849 0.520996L12.3172 6.75979L13.9019 3.07887L20.8849 0.520996Z" fill="#E2761B" stroke="#E2761B" stroke-width="0.0379306" stroke-linecap="round" stroke-linejoin="round"/>
<path d="M1.10638 0.520996L9.60521 6.81883L8.09805 3.07887L1.10638 0.520996Z" fill="#E4761B" stroke="#E4761B" stroke-width="0.0379306" stroke-linecap="round" stroke-linejoin="round"/>
<path d="M17.8021 14.9829L15.5204 18.4107L20.4027 19.7274L21.8063 15.0589L17.8021 14.9829Z" fill="#E4761B" stroke="#E4761B" stroke-width="0.0379306" stroke-linecap="round" stroke-linejoin="round"/>
<path d="M0.202332 15.0589L1.59729 19.7274L6.47963 18.4107L4.19788 14.9829L0.202332 15.0589Z" fill="#E4761B" stroke="#E4761B" stroke-width="0.0379306" stroke-linecap="round" stroke-linejoin="round"/>
<path d="M6.20412 9.19155L4.84338 11.2096L9.69107 11.4207L9.51908 6.31299L6.20412 9.19155Z" fill="#E4761B" stroke="#E4761B" stroke-width="0.0379306" stroke-linecap="round" stroke-linejoin="round"/>
<path d="M15.7873 9.19151L12.4294 6.25391L12.3172 11.4206L17.1567 11.2095L15.7873 9.19151Z" fill="#E4761B" stroke="#E4761B" stroke-width="0.0379306" stroke-linecap="round" stroke-linejoin="round"/>
<path d="M6.47961 18.4105L9.38996 17.0173L6.87557 15.0923L6.47961 18.4105Z" fill="#E4761B" stroke="#E4761B" stroke-width="0.0379306" stroke-linecap="round" stroke-linejoin="round"/>
<path d="M12.6013 17.0173L15.5203 18.4105L15.1157 15.0923L12.6013 17.0173Z" fill="#E4761B" stroke="#E4761B" stroke-width="0.0379306" stroke-linecap="round" stroke-linejoin="round"/>
<path d="M15.5203 18.4108L12.6013 17.0176L12.834 18.8835L12.808 19.6685L15.5203 18.4108Z" fill="#D7C1B3" stroke="#D7C1B3" stroke-width="0.0379306" stroke-linecap="round" stroke-linejoin="round"/>
<path d="M6.47961 18.4108L9.19198 19.6685L9.17465 18.8835L9.38996 17.0176L6.47961 18.4108Z" fill="#D7C1B3" stroke="#D7C1B3" stroke-width="0.0379306" stroke-linecap="round" stroke-linejoin="round"/>
<path d="M9.23494 13.8603L6.80676 13.1595L8.52013 12.3911L9.23494 13.8603Z" fill="#233447" stroke="#233447" stroke-width="0.0379306" stroke-linecap="round" stroke-linejoin="round"/>
<path d="M12.7565 13.8603L13.4713 12.3911L15.1933 13.1595L12.7565 13.8603Z" fill="#233447" stroke="#233447" stroke-width="0.0379306" stroke-linecap="round" stroke-linejoin="round"/>
<path d="M6.47969 18.4107L6.89297 14.9829L4.19794 15.0589L6.47969 18.4107Z" fill="#CD6116" stroke="#CD6116" stroke-width="0.0379306" stroke-linecap="round" stroke-linejoin="round"/>
<path d="M15.1071 14.9829L15.5204 18.4107L17.8022 15.0589L15.1071 14.9829Z" fill="#CD6116" stroke="#CD6116" stroke-width="0.0379306" stroke-linecap="round" stroke-linejoin="round"/>
<path d="M17.1567 11.2095L12.3172 11.4206L12.7651 13.8604L13.48 12.3911L15.202 13.1595L17.1567 11.2095Z" fill="#CD6116" stroke="#CD6116" stroke-width="0.0379306" stroke-linecap="round" stroke-linejoin="round"/>
<path d="M6.80672 13.1595L8.52875 12.3911L9.23489 13.8604L9.69107 11.4206L4.84338 11.2095L6.80672 13.1595Z" fill="#CD6116" stroke="#CD6116" stroke-width="0.0379306" stroke-linecap="round" stroke-linejoin="round"/>
<path d="M4.84338 11.2095L6.8756 15.0926L6.80672 13.1595L4.84338 11.2095Z" fill="#E4751F" stroke="#E4751F" stroke-width="0.0379306" stroke-linecap="round" stroke-linejoin="round"/>
<path d="M15.2021 13.1595L15.1158 15.0926L17.1567 11.2095L15.2021 13.1595Z" fill="#E4751F" stroke="#E4751F" stroke-width="0.0379306" stroke-linecap="round" stroke-linejoin="round"/>
<path d="M9.69104 11.4204L9.23486 13.8602L9.80324 16.7388L9.93234 12.9483L9.69104 11.4204Z" fill="#E4751F" stroke="#E4751F" stroke-width="0.0379306" stroke-linecap="round" stroke-linejoin="round"/>
<path d="M12.3172 11.4204L12.085 12.9398L12.1881 16.7388L12.7652 13.8602L12.3172 11.4204Z" fill="#E4751F" stroke="#E4751F" stroke-width="0.0379306" stroke-linecap="round" stroke-linejoin="round"/>
<path d="M12.7651 13.86L12.188 16.7386L12.6013 17.0172L15.1157 15.0922L15.2019 13.1592L12.7651 13.86Z" fill="#F6851B" stroke="#F6851B" stroke-width="0.0379306" stroke-linecap="round" stroke-linejoin="round"/>
<path d="M6.80676 13.1592L6.87564 15.0922L9.39003 17.0172L9.80332 16.7386L9.23494 13.86L6.80676 13.1592Z" fill="#F6851B" stroke="#F6851B" stroke-width="0.0379306" stroke-linecap="round" stroke-linejoin="round"/>
<path d="M12.808 19.6683L12.834 18.8834L12.6187 18.6974H9.37263L9.17465 18.8834L9.19198 19.6683L6.47961 18.4106L7.42662 19.1701L9.34664 20.4788H12.6447L14.5734 19.1701L15.5204 18.4106L12.808 19.6683Z" fill="#C0AD9E" stroke="#C0AD9E" stroke-width="0.0379306" stroke-linecap="round" stroke-linejoin="round"/>
<path d="M12.6014 17.0174L12.1881 16.7388H9.80328L9.38999 17.0174L9.17468 18.8834L9.37266 18.6973H12.6187L12.8341 18.8834L12.6014 17.0174Z" fill="#161616" stroke="#161616" stroke-width="0.0379306" stroke-linecap="round" stroke-linejoin="round"/>
<path d="M21.2466 7.16501L21.9783 3.72067L20.8848 0.520996L12.6013 6.54869L15.7872 9.19109L20.2905 10.4828L21.2895 9.34315L20.8588 9.03945L21.5477 8.42313L21.0139 8.01792L21.7027 7.50269L21.2466 7.16501Z" fill="#763D16" stroke="#763D16" stroke-width="0.0379306" stroke-linecap="round" stroke-linejoin="round"/>
<path d="M0.0216064 3.72067L0.753308 7.16501L0.288467 7.50269L0.977281 8.01792L0.452223 8.42313L1.14104 9.03945L0.71042 9.34315L1.70075 10.4828L6.20403 9.19109L9.3899 6.54869L1.10638 0.520996L0.0216064 3.72067Z" fill="#763D16" stroke="#763D16" stroke-width="0.0379306" stroke-linecap="round" stroke-linejoin="round"/>
<path d="M20.2906 10.4831L15.7873 9.19141L17.1567 11.2094L15.1158 15.0925L17.8022 15.059H21.8064L20.2906 10.4831Z" fill="#F6851B" stroke="#F6851B" stroke-width="0.0379306" stroke-linecap="round" stroke-linejoin="round"/>
<path d="M6.2041 9.19141L1.70082 10.4831L0.202332 15.059H4.19788L6.87559 15.0925L4.84337 11.2094L6.2041 9.19141Z" fill="#F6851B" stroke="#F6851B" stroke-width="0.0379306" stroke-linecap="round" stroke-linejoin="round"/>
<path d="M12.3172 11.4204L12.6014 6.54892L13.9106 3.0791H8.09814L9.38999 6.54892L9.69108 11.4204L9.79462 12.9568L9.80328 16.7388H12.1881L12.2055 12.9568L12.3172 11.4204Z" fill="#F6851B" stroke="#F6851B" stroke-width="0.0379306" stroke-linecap="round" stroke-linejoin="round"/>
</g>
<defs>
<clipPath id="clip0_202_668">
<rect width="22" height="20" fill="white" transform="translate(0 0.5)"/>
</clipPath>
</defs>
</svg>
