<svg width="20" height="20" viewBox="0 0 20 20" fill="none" xmlns="http://www.w3.org/2000/svg">
<path d="M0.727617 6.06312H4.78695L9.6122 3.11436C10.0717 2.80799 10.6845 3.15266 10.6845 3.72709V16.2881C10.6845 16.8625 10.0335 17.2071 9.57391 16.8625L4.78695 13.9137H0.727617C0.306365 13.9137 0 13.6074 0 13.2244V6.79074C0 6.40778 0.306365 6.06312 0.727617 6.06312ZM13.5567 10.6969C13.1737 10.6969 12.829 10.3905 12.829 10.0076C12.829 9.58632 13.1737 9.27995 13.5567 9.27995H17.8458C18.2287 9.27995 18.5351 9.58632 18.5351 10.0076C18.5351 10.3905 18.2287 10.6969 17.8458 10.6969H13.5567Z" fill="#E50B0B"/>
</svg>
