<svg width="70" height="70" viewBox="0 0 70 70" fill="none" xmlns="http://www.w3.org/2000/svg">
<circle cx="35" cy="35" r="34" fill="white" fill-opacity="0.5" stroke="white" stroke-width="2"/>
<path d="M42.9063 47H27.0937C26.5386 46.9994 26.0064 46.7695 25.6139 46.3609C25.2214 45.9523 25.0006 45.3983 25 44.8204V35.0168C24.9997 34.4383 25.2201 33.8834 25.6127 33.474C26.0053 33.0646 26.538 32.8343 27.0937 32.8336H28.664V29.544C28.6635 27.9824 29.2026 26.4727 30.1829 25.2906C31.1628 24.1094 32.5125 23.3272 33.9931 23.0824C34.6606 22.9725 35.3405 22.9725 36.008 23.0824C37.4885 23.327 38.8381 24.1088 39.8183 25.2894C40.7989 26.4717 41.338 27.9819 41.3371 29.544V32.8336H42.9063C43.462 32.8343 43.9947 33.0646 44.3873 33.474C44.7799 33.8834 45.0003 34.4383 45 35.0168V44.8204C44.9994 45.3983 44.7786 45.9523 44.3861 46.3609C43.9936 46.7695 43.4614 46.9994 42.9063 47ZM35 37.1679C34.7533 37.1809 34.5191 37.2847 34.3391 37.4608C34.1591 37.6368 34.045 37.8737 34.0171 38.1292L34.0103 38.2565V41.526C34.0102 41.8048 34.113 42.0731 34.2973 42.2755C34.4817 42.4778 34.7336 42.5988 35.0011 42.6134C35.2689 42.5991 35.5211 42.4782 35.7057 42.2759C35.8903 42.0735 35.9932 41.805 35.9931 41.526V38.2565L35.9863 38.1292C35.9579 37.8733 35.8432 37.6363 35.6625 37.4602C35.4819 37.2842 35.2471 37.1806 35 37.1679ZM35 25.18C34.8446 25.18 34.704 25.1883 34.5703 25.2026L34.4949 25.2109C33.6147 25.315 32.7885 25.7055 32.1338 26.3266C31.479 26.9477 31.0291 27.768 30.848 28.6707C30.8411 28.7064 30.832 28.7397 30.8229 28.7718C30.7917 28.9524 30.7715 29.1347 30.7623 29.3179V29.5404V32.8336H39.248V29.544V29.3215C39.2392 29.1383 39.2193 28.956 39.1886 28.7754C39.178 28.7423 39.1696 28.7085 39.1634 28.6743C38.9822 27.7694 38.531 26.9473 37.8742 26.3253C37.2175 25.7034 36.3887 25.3133 35.5063 25.2109L35.4377 25.2038H35.4297C35.296 25.1883 35.1554 25.18 35 25.18Z" fill="#E50B0B"/>
</svg>
