<svg width="22" height="22" viewBox="0 0 22 22" fill="none" xmlns="http://www.w3.org/2000/svg">
<path fill-rule="evenodd" clip-rule="evenodd" d="M1 11C1 5.47715 5.47715 1 11 1C16.5228 1 21 5.47715 21 11C21 16.5228 16.5228 21 11 21C5.47715 21 1 16.5228 1 11Z" stroke="#707070"/>
<path fill-rule="evenodd" clip-rule="evenodd" d="M10.8556 9.04932L10.8772 9.40976L10.516 9.36562C9.20092 9.19643 8.05206 8.62267 7.07661 7.65905L6.59972 7.18091L6.47689 7.534C6.21677 8.32108 6.38295 9.1523 6.92487 9.71135C7.21389 10.0203 7.14886 10.0644 6.6503 9.88053C6.47689 9.82169 6.32515 9.77755 6.3107 9.79962C6.26012 9.85111 6.43353 10.5205 6.57082 10.7853C6.75868 11.1531 7.14164 11.5135 7.56072 11.7269L7.91477 11.8961L7.49569 11.9034C7.09106 11.9034 7.07661 11.9108 7.11996 12.0652C7.26447 12.5434 7.83529 13.0509 8.47114 13.2716L8.91912 13.4261L8.52894 13.6615C7.9509 13.9998 7.2717 14.1911 6.5925 14.2058C6.26735 14.2132 6 14.2426 6 14.2647C6 14.3382 6.88152 14.7502 7.39453 14.912C8.93357 15.3901 10.7616 15.1842 12.1345 14.3676C13.1099 13.7865 14.0854 12.6316 14.5406 11.5135C14.7863 10.9177 15.0319 9.82904 15.0319 9.30677C15.0319 8.9684 15.0536 8.92427 15.4582 8.51969C15.6967 8.2843 15.9207 8.02684 15.964 7.95328C16.0363 7.81352 16.0291 7.81352 15.6606 7.93857C15.0464 8.15925 14.9597 8.12983 15.2632 7.79881C15.4871 7.56342 15.7545 7.13678 15.7545 7.01173C15.7545 6.98966 15.6461 7.02644 15.5233 7.09264C15.3932 7.1662 15.1042 7.27654 14.8874 7.34274L14.4972 7.46779L14.1432 7.22505C13.9481 7.09264 13.6735 6.94552 13.529 6.90139C13.1605 6.7984 12.5969 6.81312 12.2646 6.93081C11.3614 7.26183 10.7905 8.11511 10.8556 9.04932Z" fill="#707070"/>
</svg>
