<svg width="10" height="10" viewBox="0 0 10 10" fill="none" xmlns="http://www.w3.org/2000/svg">
<path fill-rule="evenodd" clip-rule="evenodd" d="M4.85557 3.04932L4.87725 3.40976L4.51597 3.36562C3.20092 3.19643 2.05206 2.62267 1.07661 1.65905L0.599721 1.18091L0.476886 1.534C0.216767 2.32108 0.382954 3.1523 0.924871 3.71135C1.21389 4.0203 1.14886 4.06443 0.6503 3.88053C0.476886 3.82169 0.32515 3.77755 0.310699 3.79962C0.26012 3.85111 0.433533 4.5205 0.570819 4.78531C0.758683 5.15311 1.14164 5.51355 1.56072 5.72687L1.91477 5.89606L1.49569 5.90341C1.09106 5.90341 1.07661 5.91077 1.11996 6.06524C1.26447 6.54338 1.83529 7.05094 2.47114 7.27161L2.91912 7.42609L2.52894 7.66148C1.9509 7.99985 1.2717 8.1911 0.592495 8.20582C0.267345 8.21317 0 8.24259 0 8.26466C0 8.33822 0.881517 8.75015 1.39453 8.91198C2.93357 9.39012 4.76164 9.18415 6.13449 8.36765C7.10994 7.78653 8.08539 6.63165 8.5406 5.51355C8.78627 4.91772 9.03194 3.82904 9.03194 3.30677C9.03194 2.9684 9.05362 2.92427 9.45825 2.51969C9.69669 2.2843 9.92068 2.02684 9.96404 1.95328C10.0363 1.81352 10.0291 1.81352 9.66056 1.93857C9.04639 2.15925 8.95968 2.12983 9.26316 1.79881C9.48715 1.56342 9.75449 1.13678 9.75449 1.01173C9.75449 0.989659 9.64611 1.02644 9.52328 1.09264C9.39322 1.1662 9.10419 1.27654 8.88743 1.34274L8.49725 1.46779L8.1432 1.22505C7.94811 1.09264 7.67354 0.945523 7.52902 0.901387C7.16052 0.798405 6.59693 0.813116 6.26455 0.930811C5.36136 1.26183 4.79054 2.11511 4.85557 3.04932Z" fill="#707070"/>
</svg>
