<svg width="12" height="12" viewBox="0 0 12 12" fill="none" xmlns="http://www.w3.org/2000/svg">
<path fill-rule="evenodd" clip-rule="evenodd" d="M12.0001 8.5697V7.91625C12.0001 7.85499 11.9634 7.81414 11.8531 7.8754L9.06114 8.7739C9.04277 8.7739 9.04277 8.7739 9.0244 8.79432C8.78849 9.07201 8.58403 9.27977 8.47439 9.39119C8.4389 9.42725 8.41334 9.45322 8.39987 9.4682C8.23455 9.63156 8.01413 9.71324 7.79371 9.71324H6.78344V8.5697H7.59166C7.61003 8.5697 7.62839 8.5697 7.64676 8.54928L7.75697 8.44718C7.81207 8.40634 7.86717 8.34509 7.92227 8.28383L7.92229 8.28381C7.95995 8.2559 7.98903 8.21846 8.01539 8.18451C8.02761 8.16878 8.03924 8.1538 8.05087 8.14087C8.08853 8.11296 8.11761 8.07551 8.14397 8.04157C8.15619 8.02584 8.16782 8.01086 8.17945 7.99793C8.207 7.95709 8.23915 7.91625 8.27129 7.8754C8.30344 7.83456 8.33558 7.79372 8.36313 7.75288C8.41824 7.69163 8.45497 7.63037 8.4917 7.56911L8.49171 7.5691C8.51008 7.53847 8.53304 7.50784 8.556 7.47721C8.57896 7.44658 8.60192 7.41594 8.62029 7.38531C8.63318 7.34234 8.65511 7.30941 8.67973 7.27243C8.69021 7.2567 8.70117 7.24023 8.71213 7.22195L8.71214 7.22194C8.74887 7.16068 8.78561 7.09942 8.80398 7.05859L8.804 7.05854C8.87747 6.91561 8.95093 6.77269 9.00603 6.62976C9.03409 6.56736 9.05144 6.50496 9.06625 6.45167C9.07083 6.4352 9.07517 6.4196 9.0795 6.40513C9.08869 6.36429 9.09787 6.32856 9.10706 6.29282C9.11624 6.25709 9.12542 6.22135 9.13461 6.18051C9.13553 6.17127 9.13645 6.16208 9.13737 6.15294C9.15473 5.98025 9.17042 5.82412 9.15298 5.64958C9.15298 5.58832 9.15298 5.52705 9.13461 5.48621C9.13461 5.46579 9.13461 5.42495 9.11624 5.38411C9.09787 5.20033 9.04277 5.03696 8.96929 4.8736C8.96011 4.84297 8.94633 4.81234 8.93256 4.78171C8.91878 4.75108 8.905 4.72045 8.89582 4.68982C8.85908 4.62856 8.82694 4.56729 8.79479 4.50603C8.76265 4.44477 8.7305 4.38351 8.69377 4.32225C8.68224 4.28379 8.66347 4.25339 8.64655 4.22597C8.63651 4.20972 8.62713 4.19451 8.62029 4.17931C8.59274 4.13846 8.56059 4.09252 8.52845 4.04657C8.4963 4.00063 8.46416 3.95468 8.43661 3.91384C8.40905 3.88321 8.38609 3.84747 8.36313 3.81174C8.34017 3.776 8.31721 3.74027 8.28966 3.70964C8.26211 3.67901 8.23915 3.64838 8.21619 3.61775C8.19323 3.58712 8.17027 3.55648 8.14271 3.52585C7.95903 3.30123 7.77534 3.09702 7.61003 2.93366C7.59816 2.90729 7.57864 2.88943 7.55641 2.86909C7.54421 2.85793 7.5312 2.84602 7.51818 2.83156C7.3896 2.70903 7.26103 2.58651 7.16918 2.50483C7.11408 2.46399 7.07735 2.42316 7.04061 2.38232L7.04061 2.38231C6.9855 2.34147 6.94876 2.30063 6.93039 2.28021C6.93039 2.25978 6.91202 2.25978 6.91202 2.25978L6.80181 2.21894V1.23876C6.80181 1.0754 6.74671 0.932455 6.65487 0.830353C6.56302 0.728251 6.43444 0.666992 6.2875 0.666992C6.01197 0.666992 5.77318 0.932457 5.77318 1.25918V1.93306L5.71807 1.91264L5.57113 1.8718L5.44255 1.83096L4.43228 1.52465C4.39555 1.50423 4.35881 1.56549 4.37718 1.60633L4.54249 1.93306L4.5976 2.05558C4.60678 2.08621 4.62056 2.11684 4.63434 2.14747C4.64811 2.1781 4.66189 2.20873 4.67107 2.23937C4.68026 2.27 4.69403 2.29552 4.70781 2.32105C4.72159 2.34657 4.73536 2.3721 4.74455 2.40273C4.79965 2.52525 4.85476 2.66819 4.90986 2.81114L5.02007 3.11744C5.11192 3.36249 5.20376 3.64838 5.27723 3.93426C5.30801 4.00269 5.32589 4.08544 5.34168 4.15852C5.34474 4.17268 5.34772 4.18647 5.3507 4.19972L5.36907 4.24057C5.40581 4.38351 5.42418 4.50603 5.44255 4.64898C5.46092 4.73066 5.47929 4.83276 5.47929 4.91444C5.47929 4.96549 5.48388 5.01654 5.48847 5.06759C5.49306 5.11864 5.49765 5.1697 5.49765 5.22075C5.51602 5.32285 5.51602 5.42495 5.51602 5.50663C5.51602 5.75168 5.49765 5.97631 5.46092 6.18051L5.40581 6.36429C5.39897 6.3871 5.38959 6.41273 5.37955 6.44015C5.36264 6.48637 5.34387 6.53764 5.33234 6.58892C5.31397 6.65017 5.2956 6.69101 5.27724 6.73184L5.27723 6.73186C5.18539 6.97691 5.07518 7.24237 4.9466 7.46699C4.76291 7.81414 4.5976 8.10003 4.46902 8.30423C4.45065 8.34507 4.43228 8.36549 4.41391 8.38591C4.37718 8.44718 4.41391 8.52886 4.48739 8.52886H5.79155V9.6724H4.46902C4.12002 9.6724 3.78939 9.4682 3.62407 9.10063C3.5506 8.91685 3.51386 8.71264 3.53223 8.52886C3.53223 8.48802 3.49549 8.42676 3.44039 8.42676H0.740222C0.703485 8.42676 0.666748 8.4676 0.666748 8.50844V8.5697C0.666748 10.4688 2.04438 12.0003 3.73428 12.0003H8.52845C9.4142 12.0003 9.92217 11.0986 10.424 10.2078C10.5673 9.95327 10.7102 9.69964 10.8612 9.4682C11.1184 9.05979 11.7613 8.73306 11.945 8.65138C11.9817 8.63096 12.0001 8.61054 12.0001 8.5697ZM1.40193 7.07909L1.36519 7.14035C1.32845 7.20161 1.36519 7.28329 1.42029 7.30371H3.88165C3.91839 7.30371 3.93676 7.28329 3.95513 7.26287L3.95513 7.26287C3.99186 7.22203 4.0286 7.16077 4.04697 7.09951C4.26739 6.71152 4.45107 6.28269 4.52455 5.95596C4.67149 5.17998 4.34086 3.95476 3.93676 2.95416C3.90002 2.87247 3.82655 2.87247 3.78981 2.93373L1.40193 7.07909Z" fill="#1E2429"/>
</svg>
